<svg width="342" height="230" viewBox="0 0 342 230" fill="none" xmlns="http://www.w3.org/2000/svg">
<rect width="342" height="230" rx="4" fill="#060B27"/>
<rect x="37.2877" y="29.5024" width="137.883" height="164.719" rx="8.79119" transform="rotate(5.14985 37.2877 29.5024)" fill="#0E1330" stroke="#282D45" stroke-width="0.925389"/>
<path d="M141.797 106.425C140.181 112.86 137.083 118.829 132.75 123.855C128.417 128.88 122.969 132.823 116.842 135.369C110.714 137.915 104.076 138.993 97.4577 138.517C90.8393 138.041 84.4238 136.025 78.7233 132.629C73.0228 129.233 68.1951 124.551 64.6258 118.957C61.0564 113.363 58.8441 107.013 58.1655 100.412C57.4869 93.8114 58.3608 87.1435 60.7174 80.9406C63.074 74.7377 66.8481 69.1716 71.7384 64.6867L76.3012 69.6619C72.1865 73.4356 69.0109 78.1189 67.028 83.3381C65.0451 88.5573 64.3098 94.1678 64.8808 99.7217C65.4518 105.276 67.3132 110.619 70.3165 115.326C73.3199 120.032 77.3819 123.972 82.1784 126.829C86.9749 129.687 92.373 131.383 97.9418 131.784C103.511 132.184 109.096 131.277 114.252 129.135C119.408 126.993 123.991 123.675 127.637 119.447C131.283 115.218 133.89 110.196 135.249 104.781L141.797 106.425Z" fill="#32CAFD"/>
<path d="M71.648 64.7698C76.4882 60.305 82.2982 57.0241 88.6211 55.1849C94.9439 53.3457 101.607 52.9986 108.087 54.1706L106.885 60.8135C101.433 59.8273 95.8267 60.1195 90.5065 61.6669C85.1864 63.2144 80.2978 65.9751 76.2252 69.7318L71.648 64.7698Z" fill="#7214FF"/>
<path d="M107.439 54.0586C113.273 55.0211 118.843 57.1885 123.793 60.4228C128.743 63.6571 132.966 67.8872 136.19 72.8436C139.415 77.8 141.572 83.3739 142.524 89.21C143.475 95.0461 143.2 101.016 141.716 106.74L135.181 105.046C136.43 100.23 136.661 95.2067 135.861 90.2961C135.06 85.3855 133.245 80.6956 130.532 76.5252C127.819 72.3548 124.266 68.7955 120.101 66.0742C115.936 63.3528 111.249 61.5291 106.34 60.7192L107.439 54.0586Z" fill="#41E88D"/>
<path d="M90.2225 95.2364L90.3807 93.4816L85.8978 93.0776L87.9945 91.5867C89.7576 90.3333 90.6857 89.2722 90.8213 87.7681C91.018 85.5856 89.7059 84.1443 87.4054 83.9369C85.1197 83.7309 83.4774 85.129 83.25 87.4871L85.1228 87.6559C85.2624 86.2711 86.0742 85.5117 87.2539 85.618C88.3894 85.7204 88.9905 86.4733 88.8802 87.6972C88.7872 88.7295 88.2367 89.3934 86.6652 90.5006L82.8723 93.1617L82.7448 94.5774L90.2225 95.2364ZM93.6036 87.8851C92.2469 89.4129 91.7342 90.3182 91.6172 91.6158C91.4179 93.8278 93.0038 95.6952 95.3337 95.9052C97.6342 96.1125 99.4896 94.6593 99.697 92.3589C99.8937 90.1764 98.5304 88.4777 96.3037 88.2771C96.0382 88.2531 95.7541 88.2721 95.482 88.3219L98.3723 85.1186L96.2193 84.9246L93.6036 87.8851ZM93.5477 91.8047C93.6646 90.507 94.601 89.6846 95.884 89.8002C97.1227 89.9118 97.9116 90.8898 97.7947 92.1875C97.6764 93.4999 96.7092 94.3344 95.4852 94.2241C94.2171 94.1098 93.4294 93.1171 93.5477 91.8047ZM109.06 94.8826L109.209 93.231L107.896 93.1127L108.534 86.0344L106.16 85.8205L100.641 92.4589L100.492 94.1105L105.963 94.6035L105.778 96.6533L107.563 96.8141L107.748 94.7643L109.06 94.8826ZM102.647 92.6396L106.567 87.9086L106.112 92.9519L102.647 92.6396ZM113.482 86.4803L111.594 86.3102L110.622 97.0898L112.51 97.26L112.717 94.9595L114.708 92.8346L116.963 97.6613L119.146 97.858L116.09 91.3536L120.073 87.0744L117.846 86.8737L112.971 92.1429L113.482 86.4803Z" fill="#8F9BB7"/>
<path d="M89.9812 104.018C89.8998 104.921 90.3904 105.56 91.4002 105.902L92.4905 106.279C93.1852 106.508 93.4821 106.925 93.429 107.515C93.3609 108.271 92.701 108.685 91.7333 108.598C90.83 108.517 90.2625 108.01 90.2879 107.316L89.6059 107.254C89.5916 108.34 90.3973 109.091 91.6784 109.206C93.0425 109.329 93.9929 108.681 94.0959 107.538C94.1765 106.644 93.6951 106.006 92.6852 105.664L91.5765 105.286C90.9011 105.048 90.5933 104.649 90.6456 104.068C90.7129 103.322 91.3644 102.897 92.2953 102.981C93.1247 103.056 93.5934 103.525 93.5999 104.279L94.2727 104.339C94.271 103.224 93.5474 102.49 92.3585 102.383C91.0313 102.263 90.0809 102.912 89.9812 104.018ZM96.2635 109.62C97.0192 109.688 97.6574 109.411 97.9846 108.874L97.9969 109.664L98.5315 109.713L98.7915 106.828C98.8978 105.648 98.1885 105.064 97.1563 104.971C96.0595 104.872 95.2699 105.386 95.1885 106.289L95.7691 106.342C95.8231 105.743 96.3155 105.434 97.0897 105.504C97.7441 105.563 98.2445 105.887 98.1656 106.762L98.1523 106.91L96.6668 106.896C95.6179 106.886 94.9447 107.345 94.8707 108.165C94.8001 108.949 95.3142 109.534 96.2635 109.62ZM96.4574 109.117C95.8491 109.062 95.4685 108.749 95.5175 108.205C95.5624 107.707 95.9366 107.37 96.782 107.371L98.1091 107.389L98.0875 107.628C98.0003 108.596 97.3975 109.202 96.4574 109.117ZM100.471 109.887L101.077 103.169L100.441 103.111L99.8353 109.83L100.471 109.887ZM103.685 110.288C104.735 110.383 105.472 109.939 105.797 109.02L105.188 108.965C104.969 109.54 104.471 109.811 103.743 109.746C102.784 109.659 102.269 108.981 102.321 107.889L105.87 108.209L105.898 107.896C106.012 106.633 105.269 105.702 104.061 105.593C102.79 105.479 101.837 106.359 101.711 107.751C101.585 109.152 102.376 110.171 103.685 110.288ZM104.012 106.137C104.851 106.212 105.353 106.834 105.275 107.691L102.381 107.43C102.571 106.564 103.174 106.061 104.012 106.137ZM106.428 109.161C106.353 109.99 106.932 110.581 107.936 110.672C108.95 110.763 109.68 110.299 109.752 109.497C109.81 108.852 109.492 108.461 108.736 108.198L107.988 107.935C107.51 107.772 107.292 107.51 107.323 107.169C107.366 106.69 107.741 106.454 108.367 106.511C108.966 106.565 109.298 106.901 109.27 107.419L109.888 107.475C109.935 106.643 109.373 106.072 108.433 105.987C107.474 105.901 106.775 106.339 106.705 107.123C106.65 107.731 106.991 108.171 107.748 108.434L108.495 108.697C109.009 108.873 109.174 109.102 109.141 109.47C109.098 109.949 108.666 110.208 107.975 110.146C107.348 110.089 106.99 109.732 107.036 109.215L106.428 109.161Z" fill="#8F9BB7"/>
<circle cx="51.0379" cy="150.136" r="3.23886" transform="rotate(5.14985 51.0379 150.136)" fill="#32CAFD" stroke="#282D45" stroke-width="0.925389"/>
<line x1="62.6" y1="150.714" x2="140.941" y2="157.774" stroke="#282D45" stroke-width="4.62694" stroke-linecap="round"/>
<circle cx="49.7919" cy="163.961" r="3.23886" transform="rotate(5.14985 49.7919 163.961)" fill="#7214FF" stroke="#282D45" stroke-width="0.925389"/>
<line x1="61.354" y1="164.538" x2="106.515" y2="168.608" stroke="#282D45" stroke-width="4.62694" stroke-linecap="round"/>
<circle cx="48.5459" cy="177.785" r="3.23886" transform="rotate(5.14985 48.5459 177.785)" fill="#41E88D" stroke="#282D45" stroke-width="0.925389"/>
<line x1="60.1081" y1="178.363" x2="121.859" y2="183.928" stroke="#282D45" stroke-width="4.62694" stroke-linecap="round"/>
<circle cx="232" cy="45" r="22" fill="#2D55FB"/>
<rect width="24" height="24" transform="translate(220 33)" fill="#2D55FB"/>
<path d="M237.919 47.32C237.66 47.571 237.541 47.934 237.6 48.29L238.489 53.21C238.564 53.627 238.388 54.049 238.039 54.29C237.697 54.54 237.242 54.57 236.869 54.37L232.44 52.06C232.286 51.978 232.115 51.934 231.94 51.929H231.669C231.575 51.943 231.483 51.973 231.399 52.019L226.969 54.34C226.75 54.45 226.502 54.489 226.259 54.45C225.667 54.338 225.272 53.774 225.369 53.179L226.259 48.259C226.318 47.9 226.199 47.535 225.94 47.28L222.329 43.78C222.027 43.487 221.922 43.047 222.06 42.65C222.194 42.254 222.536 41.965 222.949 41.9L227.919 41.179C228.297 41.14 228.629 40.91 228.799 40.57L230.989 36.08C231.041 35.98 231.108 35.888 231.189 35.81L231.279 35.74C231.326 35.688 231.38 35.645 231.44 35.61L231.549 35.57L231.719 35.5H232.14C232.516 35.539 232.847 35.764 233.02 36.1L235.239 40.57C235.399 40.897 235.71 41.124 236.069 41.179L241.039 41.9C241.459 41.96 241.81 42.25 241.949 42.65C242.08 43.051 241.967 43.491 241.659 43.78L237.919 47.32Z" fill="black"/>
<rect x="210.535" y="97.7836" width="87" height="111" rx="5.5" transform="rotate(-4.11899 210.535 97.7836)" fill="#0E1330" stroke="#282D45"/>
<circle cx="256.329" cy="128.073" r="19" transform="rotate(-4.11899 256.329 128.073)" fill="#DF2DB1"/>
<path d="M256 119.667C260.608 119.667 264.333 123.4 264.333 128C264.333 132.609 260.608 136.334 256 136.334C251.4 136.334 247.667 132.609 247.667 128C247.667 123.4 251.4 119.667 256 119.667ZM255.708 123.775C255.367 123.775 255.083 124.05 255.083 124.4V128.609C255.083 128.825 255.2 129.025 255.392 129.142L258.658 131.092C258.758 131.15 258.867 131.184 258.983 131.184C259.192 131.184 259.4 131.075 259.517 130.875C259.692 130.584 259.6 130.2 259.3 130.017L256.333 128.25V124.4C256.333 124.05 256.05 123.775 255.708 123.775Z" fill="#060B27"/>
<path d="M259.082 171.651L258.889 168.97L256.758 169.124L255.931 157.634L252.077 157.911L244.981 169.972L245.174 172.653L254.055 172.013L254.294 175.341L257.191 175.132L256.951 171.805L259.082 171.651ZM248.236 169.738L253.272 161.146L253.862 169.332L248.236 169.738ZM267.161 174.703C271.063 174.422 273.534 171.645 273.261 167.863C273.013 164.416 270.52 162.213 267.025 162.465C265.829 162.551 264.798 162.938 264 163.549L264.671 159.844L271.589 159.345L271.386 156.521L262.265 157.177L260.771 166.501L263.518 166.881C264.074 165.926 265.247 165.168 266.588 165.071C268.694 164.92 270.015 166.22 270.161 168.255C270.315 170.385 269.095 171.821 267.036 171.969C265.097 172.109 263.84 171.02 263.697 169.033L260.657 169.252C260.912 172.795 263.498 174.967 267.161 174.703Z" fill="#8F9BB7"/>
<path d="M239.298 192.459L239.909 190.25L243.548 189.988L244.481 192.086L245.714 191.997L241.919 183.572L240.614 183.666L238.077 192.547L239.298 192.459ZM241.251 185.497C241.298 185.313 241.343 185.106 241.359 184.984C241.392 185.114 241.467 185.313 241.538 185.477L243.127 188.995L240.195 189.207L241.251 185.497ZM246.071 190.263C246.151 191.376 247.078 192.044 248.454 191.944C249.843 191.844 250.749 191.069 250.669 189.956C250.606 189.083 250.083 188.663 249.072 188.495L248.025 188.318C247.44 188.216 247.134 187.973 247.105 187.578C247.066 187.04 247.439 186.7 248.145 186.649C248.827 186.6 249.249 186.942 249.315 187.527L250.392 187.45C250.288 186.338 249.399 185.68 248.118 185.773C246.825 185.866 245.965 186.614 246.042 187.691C246.105 188.552 246.632 189.032 247.692 189.208L248.738 189.373C249.36 189.485 249.569 189.711 249.597 190.106C249.636 190.644 249.204 191 248.414 191.057C247.672 191.11 247.192 190.784 247.149 190.186L246.071 190.263ZM251.436 189.877C251.516 190.99 252.443 191.657 253.819 191.558C255.208 191.458 256.114 190.683 256.034 189.57C255.971 188.696 255.448 188.277 254.437 188.109L253.39 187.932C252.805 187.829 252.499 187.587 252.47 187.192C252.431 186.653 252.804 186.314 253.51 186.263C254.192 186.214 254.614 186.556 254.68 187.141L255.757 187.063C255.653 185.952 254.764 185.294 253.483 185.386C252.19 185.479 251.33 186.227 251.407 187.304C251.47 188.166 251.997 188.645 253.057 188.822L254.103 188.987C254.725 189.099 254.934 189.324 254.962 189.719C255.001 190.258 254.569 190.614 253.779 190.671C253.037 190.724 252.557 190.398 252.514 189.799L251.436 189.877ZM257.432 183.875C257.839 183.846 258.15 183.486 258.12 183.079C258.09 182.66 257.732 182.361 257.325 182.391C256.918 182.42 256.606 182.767 256.636 183.186C256.665 183.593 257.025 183.904 257.432 183.875ZM257.402 191.156L258.528 191.075L258.106 185.222L256.981 185.303L257.402 191.156ZM259.568 187.908C259.686 189.547 260.832 190.752 262.496 190.633C263.417 190.566 264.154 190.104 264.488 189.394L264.572 190.567C264.653 191.68 263.986 192.45 262.885 192.529C261.903 192.6 261.221 192.144 261.015 191.293L259.89 191.374C260.213 192.842 261.366 193.661 262.958 193.547C264.754 193.418 265.806 192.163 265.673 190.319L265.269 184.706L264.264 184.778L264.252 185.778C263.828 185.074 263.067 184.696 262.121 184.764C260.422 184.887 259.449 186.256 259.568 187.908ZM260.692 187.803C260.614 186.726 261.222 185.816 262.347 185.735C263.497 185.652 264.225 186.417 264.306 187.542C264.389 188.692 263.754 189.555 262.617 189.637C261.515 189.717 260.771 188.904 260.692 187.803ZM268.439 190.361L268.216 187.261C268.134 186.124 268.69 185.326 269.744 185.25C270.605 185.188 271.19 185.627 271.276 186.812L271.515 190.139L272.641 190.058L272.383 186.48C272.275 184.983 271.501 184.089 269.957 184.2C269.131 184.259 268.417 184.708 268.095 185.405L267.91 184.516L266.893 184.589L267.314 190.442L268.439 190.361ZM276.735 189.908C278.183 189.804 279.113 189.027 279.31 187.749L278.257 187.825C278.114 188.509 277.565 188.91 276.691 188.973C275.578 189.053 274.883 188.417 274.71 187.19L279.234 186.853L279.203 186.434C279.078 184.698 277.907 183.627 276.243 183.747C274.543 183.87 273.474 185.222 273.606 187.053C273.737 188.873 275.011 190.032 276.735 189.908ZM276.311 184.693C277.304 184.621 277.985 185.222 278.055 186.191L274.68 186.435C274.749 185.395 275.329 184.764 276.311 184.693ZM283.042 189.454C283.976 189.386 284.736 188.923 285.062 188.093L285.234 189.151L286.24 189.079L285.605 180.27L284.492 180.35L284.773 184.252C284.326 183.562 283.544 183.222 282.646 183.286C280.911 183.411 279.964 184.803 280.093 186.598C280.222 188.381 281.343 189.576 283.042 189.454ZM283.196 188.42C282.047 188.503 281.315 187.689 281.228 186.48C281.142 185.283 281.75 184.373 282.899 184.291C284.048 184.208 284.816 185.019 284.902 186.216C284.99 187.437 284.345 188.337 283.196 188.42Z" fill="#8F9BB7"/>
</svg>
