<svg width="342" height="230" viewBox="0 0 342 230" fill="none" xmlns="http://www.w3.org/2000/svg">
<rect width="342" height="230" rx="4" fill="#060B27"/>
<rect x="163.845" y="48.4864" width="164.879" height="131.742" rx="7.67819" transform="rotate(13.3229 163.845 48.4864)" fill="#0E1330" stroke="#282D45" stroke-width="0.80823"/>
<path d="M171.441 73.6331C173.776 74.1859 175.772 72.926 176.332 70.5587C176.901 68.1584 175.649 66.1293 173.27 65.5661L170.452 64.8986L168.546 72.9474L171.441 73.6331ZM172.831 66.834C174.493 67.2278 175.25 68.5001 174.846 70.2067C174.45 71.8803 173.225 72.6833 171.617 72.3026L170.263 71.9819L171.553 66.5316L172.831 66.834ZM178.083 75.357C178.93 75.5578 179.759 75.3471 180.124 74.8403L180.032 75.6676L181.21 75.9466L181.993 72.6434C182.35 71.1349 181.635 70.1283 180.17 69.7815C178.695 69.4321 177.543 69.9734 177.264 71.1516L178.41 71.4227C178.545 70.8502 179.064 70.6242 179.857 70.8119C180.539 70.9736 180.909 71.3751 180.735 72.1129L180.706 72.234L179.048 71.9692C177.736 71.7632 176.861 72.2187 176.623 73.2207C176.381 74.2447 176.926 75.0832 178.083 75.357ZM178.763 74.4483C178.157 74.3049 177.884 73.9845 178.002 73.489C178.106 73.0486 178.49 72.8489 179.346 72.97L180.5 73.1505L180.433 73.4368C180.235 74.2736 179.589 74.6439 178.763 74.4483ZM182.503 74.5084C182.25 75.5764 182.937 76.5065 184.291 76.8272C185.634 77.1453 186.732 76.6843 186.993 75.5832C187.191 74.7464 186.827 74.2185 185.963 73.7929L185.038 73.3296C184.601 73.11 184.406 72.8544 184.479 72.5461C184.576 72.1387 184.941 71.9695 185.47 72.0947C185.987 72.2172 186.225 72.5875 186.127 73.0526L187.404 73.355C187.643 72.2954 186.984 71.3952 185.762 71.1057C184.507 70.8085 183.453 71.2333 183.2 72.3013C182.994 73.1712 183.358 73.7457 184.286 74.198L185.211 74.6613C185.669 74.8861 185.765 75.1182 185.7 75.3935C185.606 75.7899 185.205 75.9623 184.578 75.8137C183.961 75.6677 183.679 75.2869 183.78 74.8109L182.503 74.5084ZM188.97 77.7842L189.674 74.8113C189.867 73.9965 190.503 73.5192 191.351 73.72C192.034 73.8817 192.381 74.429 192.165 75.3429L191.448 78.3708L192.791 78.6889L193.584 75.3417C193.917 73.9323 193.413 72.9176 192.07 72.5995C191.288 72.4144 190.569 72.6045 190.102 73.0522L190.921 69.5948L189.567 69.2741L187.627 77.466L188.97 77.7842ZM195.355 79.2961L195.644 78.4692C195.814 79.1724 196.422 79.7 197.237 79.893C198.8 80.2632 200.098 79.3496 200.495 77.676C200.901 75.9583 200.241 74.5229 198.689 74.1552C197.863 73.9597 197.05 74.1509 196.554 74.6731L197.394 71.1276L196.051 70.8095L194.111 79.0015L195.355 79.2961ZM196.114 76.5805C196.346 75.6006 197.114 75.0613 198.039 75.2804C198.985 75.5046 199.383 76.3313 199.153 77.3002C198.924 78.2691 198.201 78.8188 197.254 78.5946C196.329 78.3756 195.882 77.5605 196.114 76.5805ZM201.255 77.8096C200.854 79.5053 201.799 80.9618 203.484 81.3608C205.169 81.7597 206.667 80.882 207.069 79.1863C207.47 77.4907 206.525 76.0341 204.84 75.6352C203.155 75.2363 201.657 76.114 201.255 77.8096ZM202.599 78.1277C202.833 77.1368 203.631 76.6163 204.556 76.8354C205.481 77.0544 205.96 77.8773 205.726 78.8682C205.491 79.8592 204.693 80.3796 203.768 80.1606C202.843 79.9416 202.364 79.1187 202.599 78.1277ZM209.072 82.6956C209.919 82.8964 210.748 82.6857 211.113 82.1789L211.021 83.0061L212.2 83.2851L212.982 79.9819C213.339 78.4735 212.624 77.4669 211.159 77.1201C209.684 76.7707 208.533 77.312 208.254 78.4901L209.399 78.7613C209.534 78.1887 210.053 77.9627 210.846 78.1505C211.528 78.3121 211.898 78.7137 211.724 79.4514L211.695 79.5725L210.037 79.3078C208.725 79.1018 207.85 79.5573 207.612 80.5593C207.37 81.5833 207.916 82.4218 209.072 82.6956ZM209.752 81.7869C209.146 81.6435 208.873 81.323 208.991 80.8275C209.095 80.3871 209.48 80.1875 210.335 80.3086L211.49 80.489L211.422 80.7753C211.224 81.6121 210.578 81.9825 209.752 81.7869ZM218.226 78.9447C218.019 78.8374 217.837 78.7711 217.65 78.7268C216.923 78.5547 216.319 78.7955 215.96 79.2803L216.071 78.4692L214.805 78.1694L213.519 83.5976L214.863 83.9158L215.488 81.2732C215.739 80.2162 216.467 79.8421 217.436 80.0715L217.931 80.1889L218.226 78.9447ZM219.86 85.2504C220.686 85.446 221.477 85.2495 221.956 84.7001L221.843 85.5688L223.076 85.8609L225.016 77.6689L223.684 77.3534L222.868 80.7997C222.654 80.1794 222.058 79.701 221.298 79.5211C219.658 79.1326 218.38 80.1091 217.979 81.8048C217.58 83.4894 218.286 84.8776 219.86 85.2504ZM220.45 84.0876C219.514 83.866 219.103 83.0478 219.332 82.0788C219.562 81.1099 220.299 80.5518 221.234 80.7734C222.17 80.9951 222.614 81.8211 222.382 82.8011C222.15 83.781 221.385 84.3093 220.45 84.0876ZM229.051 87.2759L229.763 84.2699L231.492 84.6793L232.145 88.0085L233.687 88.3736L232.939 84.7079C233.977 84.5468 234.666 83.896 234.921 82.817C235.297 81.2314 234.448 80.0536 232.62 79.6208L229.548 78.8933L227.642 86.9421L229.051 87.2759ZM230.66 80.4822L232.323 80.876C233.215 81.0872 233.636 81.6638 233.446 82.4676C233.253 83.2823 232.612 83.6307 231.721 83.4194L230.058 83.0257L230.66 80.4822ZM236.833 89.2697C238.253 89.606 239.413 89.125 239.926 87.9906L238.682 87.696C238.405 88.177 237.853 88.3485 237.115 88.1738C236.223 87.9626 235.832 87.3582 235.959 86.3768L240.058 87.3358L240.155 86.9284C240.556 85.2327 239.779 83.8976 238.15 83.5117C236.553 83.1336 235.162 84.0484 234.758 85.755C234.359 87.4397 235.214 88.8864 236.833 89.2697ZM237.9 84.6153C238.704 84.8057 239.104 85.4237 238.927 86.1724L236.196 85.5258C236.521 84.7423 237.107 84.4276 237.9 84.6153ZM239.965 92.5232L241.308 92.8413L242.078 89.5931C242.288 90.2245 242.918 90.7107 243.732 90.9036C245.351 91.2869 246.568 90.2727 246.969 88.5771C247.374 86.8704 246.624 85.5185 245.093 85.156C244.268 84.9605 243.466 85.1543 242.987 85.7037L243.094 84.8571L241.85 84.5624L239.965 92.5232ZM242.56 87.6028C242.793 86.6228 243.56 86.0836 244.485 86.3026C245.432 86.5268 245.829 87.3535 245.599 88.3224C245.37 89.2914 244.647 89.8411 243.7 89.6168C242.775 89.3978 242.328 88.5827 242.56 87.6028ZM247.707 88.8098C247.305 90.5055 248.251 91.962 249.936 92.361C251.62 92.7599 253.119 91.8822 253.52 90.1866C253.922 88.4909 252.976 87.0343 251.291 86.6354C249.607 86.2365 248.108 87.1142 247.707 88.8098ZM249.05 89.1279C249.285 88.137 250.082 87.6165 251.007 87.8356C251.932 88.0546 252.412 88.8775 252.177 89.8684C251.942 90.8594 251.145 91.3798 250.22 91.1608C249.295 90.9418 248.815 90.1189 249.05 89.1279ZM258.645 88.5164C258.438 88.4092 258.256 88.3428 258.069 88.2985C257.342 88.1264 256.738 88.3672 256.379 88.852L256.49 88.0409L255.224 87.7411L253.938 93.1694L255.282 93.4875L255.907 90.8449C256.158 89.7879 256.886 89.4138 257.855 89.6432L258.35 89.7606L258.645 88.5164ZM260.326 94.682L261.348 90.3658L262.405 90.6161L262.671 89.493L261.614 89.2427L262.015 87.547L260.672 87.2289L260.271 88.9246L259.225 88.6769L258.959 89.8L260.005 90.0477L258.982 94.3639L260.326 94.682Z" fill="#8F9BB7"/>
<line x1="185.039" y1="97.5262" x2="302.225" y2="125.277" stroke="#282D45" stroke-width="0.80823"/>
<line x1="179.452" y1="121.12" x2="296.637" y2="148.871" stroke="#282D45" stroke-width="0.80823"/>
<line x1="173.865" y1="144.715" x2="291.05" y2="172.465" stroke="#282D45" stroke-width="0.80823"/>
<line x1="168.277" y1="168.309" x2="285.463" y2="196.06" stroke="#282D45" stroke-width="0.80823"/>
<path d="M165.274 90.9504L163.897 96.764L165.058 97.0389L166.692 90.1399L164.021 89.5074L163.764 90.5928L165.274 90.9504ZM167.046 93.8817C166.541 96.0146 167.289 97.6967 169.12 98.1303C170.951 98.5639 172.383 97.3981 172.888 95.2651C173.395 93.1228 172.579 91.3944 170.814 90.9765C169.049 90.5586 167.553 91.7393 167.046 93.8817ZM168.235 94.1633C168.622 92.5306 169.476 91.7859 170.561 92.043C171.656 92.3022 172.085 93.3508 171.699 94.9835C171.321 96.5785 170.467 97.3231 169.372 97.0638C168.287 96.8068 167.857 95.7583 168.235 94.1633ZM173.7 95.4575C173.195 97.5904 173.943 99.2726 175.774 99.7061C177.605 100.14 179.037 98.9739 179.542 96.8409C180.05 94.6986 179.233 92.9703 177.468 92.5523C175.703 92.1344 174.208 93.3151 173.7 95.4575ZM174.89 95.7391C175.276 94.1064 176.13 93.3618 177.216 93.6188C178.31 93.878 178.74 94.9266 178.353 96.5593C177.975 98.1543 177.121 98.8989 176.027 98.6397C174.941 98.3827 174.512 97.3341 174.89 95.7391Z" fill="#8F9BB7"/>
<path d="M163.738 116.501C162.716 117.365 162.3 117.904 162.103 118.735C161.768 120.15 162.622 121.509 164.113 121.862C165.586 122.211 166.924 121.441 167.273 119.969C167.603 118.572 166.878 117.344 165.453 117.006C165.283 116.966 165.097 116.952 164.916 116.959L167.088 115.151L165.71 114.825L163.738 116.501ZM163.337 119.037C163.534 118.206 164.218 117.76 165.039 117.955C165.831 118.142 166.252 118.85 166.055 119.68C165.856 120.52 165.151 120.971 164.368 120.786C163.557 120.594 163.138 119.877 163.337 119.037ZM168.27 119.089C167.765 121.221 168.512 122.904 170.343 123.337C172.174 123.771 173.607 122.605 174.112 120.472C174.619 118.33 173.802 116.601 172.037 116.183C170.273 115.765 168.777 116.946 168.27 119.089ZM169.459 119.37C169.846 117.737 170.7 116.993 171.785 117.25C172.88 117.509 173.309 118.558 172.923 120.19C172.545 121.785 171.691 122.53 170.596 122.271C169.511 122.014 169.081 120.965 169.459 119.37Z" fill="#8F9BB7"/>
<path d="M158.678 142.585C159.64 142.813 159.973 143.43 159.807 144.128C159.626 144.893 159.01 145.265 158.255 145.086C157.519 144.912 157.135 144.343 157.323 143.55L156.134 143.268C155.781 144.76 156.631 145.838 157.981 146.158C159.378 146.489 160.694 145.853 161.03 144.438C161.318 143.22 160.68 142.252 159.672 141.794L161.719 140.644L161.947 139.681L157.568 138.644L157.315 139.711L160.184 140.39L158.023 141.603L157.838 142.386L158.678 142.585ZM162.017 143.356C161.512 145.489 162.26 147.171 164.09 147.605C165.921 148.038 167.354 146.872 167.859 144.739C168.366 142.597 167.549 140.869 165.785 140.451C164.02 140.033 162.524 141.214 162.017 143.356ZM163.206 143.638C163.593 142.005 164.447 141.26 165.532 141.517C166.627 141.776 167.056 142.825 166.67 144.458C166.292 146.053 165.438 146.797 164.343 146.538C163.258 146.281 162.828 145.233 163.206 143.638Z" fill="#8F9BB7"/>
<path d="M156.375 167.768C155.87 169.901 156.618 171.583 158.449 172.017C160.28 172.45 161.712 171.284 162.217 169.151C162.725 167.009 161.908 165.281 160.143 164.863C158.378 164.445 156.883 165.626 156.375 167.768ZM157.564 168.05C157.951 166.417 158.805 165.672 159.89 165.929C160.985 166.189 161.415 167.237 161.028 168.87C160.65 170.465 159.796 171.209 158.701 170.95C157.616 170.693 157.187 169.645 157.564 168.05Z" fill="#8F9BB7"/>
<path d="M171.599 159.544C175.497 162.959 184.337 167.815 190.795 166.166C200.078 163.796 206.909 156.583 213.644 143.337C218.92 132.959 223.081 129.791 233.284 130.546C249.089 131.716 254.447 137.634 257.541 142.105C260.635 146.575 261.298 152.546 270.736 154.781C280.173 157.016 288.7 133.287 295.871 134.57" stroke="#32CAFD" stroke-width="1.61646"/>
<path d="M174.02 149.32C183.099 148.978 202.354 151.378 206.742 163.713C212.227 179.132 220.749 179.706 224.562 177.901C229.239 175.686 234.868 155.424 246.686 159.883C258.504 164.343 275.558 148.448 277.193 138.037C278.827 127.627 291.98 121.19 300.466 125.691" stroke="#7214FF" stroke-width="1.61646"/>
<circle cx="103" cy="41" r="22" fill="#FFC933"/>
<rect width="24" height="24" transform="translate(91 29)" fill="#FFC933"/>
<path d="M108.919 43.32C108.66 43.571 108.541 43.934 108.6 44.29L109.489 49.21C109.564 49.627 109.388 50.049 109.039 50.29C108.697 50.54 108.242 50.57 107.869 50.37L103.44 48.06C103.286 47.978 103.115 47.934 102.94 47.929H102.669C102.575 47.943 102.483 47.973 102.399 48.019L97.9685 50.34C97.7495 50.45 97.5015 50.489 97.2585 50.45C96.6665 50.338 96.2715 49.774 96.3685 49.179L97.2585 44.259C97.3175 43.9 97.1985 43.535 96.9395 43.28L93.3285 39.78C93.0265 39.487 92.9215 39.047 93.0595 38.65C93.1935 38.254 93.5355 37.965 93.9485 37.9L98.9185 37.179C99.2965 37.14 99.6285 36.91 99.7985 36.57L101.989 32.08C102.041 31.98 102.108 31.888 102.189 31.81L102.279 31.74C102.326 31.688 102.38 31.645 102.44 31.61L102.549 31.57L102.719 31.5H103.14C103.516 31.539 103.847 31.764 104.02 32.1L106.239 36.57C106.399 36.897 106.71 37.124 107.069 37.179L112.039 37.9C112.459 37.96 112.81 38.25 112.949 38.65C113.08 39.051 112.967 39.491 112.659 39.78L108.919 43.32Z" fill="black"/>
<rect x="25.5346" y="92.7836" width="87" height="111" rx="5.5" transform="rotate(-4.11899 25.5346 92.7836)" fill="#0E1330" stroke="#282D45"/>
<circle cx="71.3285" cy="123.073" r="19" transform="rotate(-4.11899 71.3285 123.073)" fill="#7214FF"/>
<g clip-path="url(#clip0_372_13)">
<path d="M73.1742 114.064C75.9529 113.506 77.8381 114.767 78.4043 117.544L79.9368 125.175C80.4947 127.953 79.2345 129.846 76.4559 130.404L68.8257 131.937C66.047 132.495 64.1543 131.234 63.5964 128.456L62.0639 120.825C61.5058 118.047 62.7654 116.154 65.544 115.596L73.1742 114.064ZM70.4457 118.122C70.1882 118.029 69.9104 118.085 69.7186 118.268C69.5249 118.451 69.4542 118.729 69.5287 118.978L71.2007 127.303C71.313 127.646 71.6588 127.849 72.0019 127.78C72.3541 127.709 72.5949 127.389 72.557 127.031L70.885 118.705C70.8668 118.446 70.694 118.216 70.4457 118.122ZM67.1684 121.568C66.9199 121.474 66.6413 121.53 66.4494 121.713C66.2559 121.896 66.1849 122.173 66.2604 122.422L67.3942 128.068C67.4967 128.413 67.8433 128.615 68.1946 128.544C68.5467 128.474 68.7876 128.153 68.7497 127.795L67.6159 122.15C67.5902 121.891 67.4161 121.663 67.1684 121.568ZM75.3288 123.015C75.0811 122.92 74.8034 122.976 74.6025 123.161C74.409 123.344 74.3363 123.613 74.4217 123.868L74.9598 126.548C75.0631 126.893 75.4089 127.096 75.761 127.025C76.1042 126.956 76.345 126.636 76.3161 126.276L75.7779 123.596C75.7489 123.329 75.5781 123.109 75.3288 123.015Z" fill="#060B27"/>
</g>
<path d="M56.875 156.675L57.9369 171.42L60.8813 171.208L59.6211 153.71L52.8466 154.197L53.0449 156.95L56.875 156.675ZM68.4066 161.956C70.8483 161.78 72.0904 162.99 72.218 164.761C72.3576 166.7 71.1785 168.036 69.2635 168.174C67.3963 168.309 66.0688 167.249 65.924 165.239L62.9078 165.456C63.1802 169.238 65.989 171.153 69.4121 170.907C72.955 170.652 75.5919 168.176 75.3334 164.585C75.111 161.497 72.887 159.684 70.168 159.351L74.1463 155.118L73.9704 152.676L62.8632 153.476L63.058 156.181L70.3352 155.657L66.133 160.122L66.2761 162.109L68.4066 161.956ZM90.8916 165.702L90.6985 163.021L88.5681 163.175L87.7406 151.685L83.8866 151.962L76.7906 164.023L76.9836 166.704L85.8646 166.065L86.1042 169.392L89.0007 169.183L88.7611 165.856L90.8916 165.702ZM80.0461 163.789L85.082 155.197L85.6716 163.383L80.0461 163.789Z" fill="#8F9BB7"/>
<path d="M60.0801 185.365C61.7677 185.244 62.7844 183.991 62.668 182.375C62.5482 180.712 61.3789 179.677 59.6793 179.799L56.316 180.042L56.9392 188.695L58.1121 188.611L57.8897 185.523L60.0801 185.365ZM59.5516 180.867C60.6528 180.788 61.3559 181.363 61.4343 182.452C61.5111 183.518 60.9139 184.246 59.7529 184.33L57.8139 184.47L57.5648 181.01L59.5516 180.867ZM67.1547 182.028C66.9238 181.997 66.7545 181.985 66.551 182C65.7491 182.057 65.192 182.507 64.9965 183.134L64.8609 182.254L63.8077 182.329L64.2283 188.17L65.3534 188.089L65.1301 184.989C65.0491 183.864 65.6609 183.171 66.7261 183.094L67.2288 183.058L67.1547 182.028ZM67.8303 184.963C67.9604 186.771 69.3444 187.946 71.1039 187.82C72.8514 187.694 74.0526 186.332 73.9225 184.525C73.7923 182.717 72.4083 181.542 70.6608 181.668C68.9014 181.794 67.7001 183.156 67.8303 184.963ZM68.9673 184.881C68.8794 183.661 69.5962 182.755 70.7332 182.673C71.8583 182.592 72.7095 183.385 72.7974 184.606C72.8853 185.826 72.1566 186.733 71.0315 186.814C69.8944 186.896 69.0552 186.102 68.9673 184.881ZM75.4202 180.086C75.8151 180.057 76.1381 179.697 76.1088 179.29C76.0786 178.871 75.7083 178.573 75.3133 178.601C74.8944 178.632 74.5945 178.978 74.6246 179.397C74.654 179.804 75.0013 180.116 75.4202 180.086ZM74.0863 190.131C74.4283 190.203 74.6207 190.201 74.9199 190.18C76.057 190.098 76.6507 189.321 76.5662 188.148L76.0827 181.433L74.9576 181.515L75.4334 188.121C75.4808 188.78 75.2878 189.106 74.7492 189.145C74.5696 189.158 74.4362 189.144 74.2045 189.1L74.0863 190.131ZM80.6734 187.13C82.1216 187.026 83.0522 186.249 83.249 184.972L82.1957 185.048C82.0525 185.732 81.5038 186.132 80.6301 186.195C79.517 186.275 78.8215 185.64 78.649 184.413L83.1724 184.075L83.1422 183.656C83.0172 181.921 81.8453 180.85 80.1816 180.97C78.482 181.092 77.4124 182.445 77.5443 184.276C77.6753 186.095 78.9498 187.255 80.6734 187.13ZM80.2497 181.915C81.2431 181.844 81.924 182.445 81.9938 183.414L78.6186 183.657C78.6881 182.617 79.2682 181.986 80.2497 181.915ZM84.0314 183.809C84.1641 185.652 85.3891 186.791 87.1126 186.667C88.525 186.565 89.5529 185.637 89.689 184.352L88.5639 184.433C88.4104 185.142 87.8421 185.604 87.0402 185.661C85.975 185.738 85.2341 184.973 85.1436 183.717C85.0523 182.448 85.7238 181.581 86.789 181.505C87.543 181.45 88.1699 181.802 88.4149 182.531L89.54 182.45C89.2425 181.16 88.1529 180.396 86.6807 180.502C84.9691 180.625 83.8995 181.977 84.0314 183.809ZM92.67 186.122L92.3166 181.215L93.4656 181.132L93.3975 180.187L92.2485 180.269L92.1166 178.438L90.9916 178.519L91.1234 180.35L89.9744 180.433L90.0425 181.379L91.1915 181.296L91.5449 186.203L92.67 186.122Z" fill="#8F9BB7"/>
<defs>
<clipPath id="clip0_372_13">
<rect width="20" height="20" fill="white" transform="translate(59.2267 115.165) rotate(-11.3557)"/>
</clipPath>
</defs>
</svg>
