<svg width="23" height="30" viewBox="0 0 23 30" fill="none" xmlns="http://www.w3.org/2000/svg">
<g clip-path="url(#clip0_222_31)">
<path d="M2.55127 0H14.0767C14.0767 2.05078 14.0767 4.10742 14.0767 6.1582C14.0708 6.93164 14.4341 7.69336 15.0376 8.18555C15.5181 8.58984 16.145 8.80078 16.772 8.79492C18.8052 8.79492 20.8325 8.79492 22.8657 8.79492C22.8657 14.9883 22.8657 21.1816 22.8657 27.3691C22.8716 28.2715 22.3735 29.1562 21.6001 29.6191C21.2485 29.8418 20.8442 29.9531 20.4341 30.0059H2.42236C1.96533 29.9355 1.51416 29.8008 1.13916 29.5254C0.441892 29.0391 0.00829839 28.207 0.0141578 27.3633C0.0141578 19.1602 0.0141578 10.957 0.0141578 2.75391C0.0141578 2.4375 0.0434546 2.12109 0.143064 1.82227C0.46533 0.791016 1.47314 0.0351562 2.55127 0ZM6.00244 12.3809C5.55713 12.457 5.22314 12.9199 5.29931 13.3652C5.35205 13.7871 5.74463 14.127 6.17236 14.1211C9.66455 14.1211 13.1626 14.1211 16.6606 14.1211C16.936 14.1328 17.2173 14.0215 17.3931 13.8047C17.604 13.5586 17.6626 13.1953 17.5278 12.9023C17.3989 12.5859 17.0649 12.3633 16.7251 12.3633C13.3091 12.3633 9.8872 12.3633 6.47119 12.3633C6.30713 12.3633 6.15478 12.3516 6.00244 12.3809ZM6.00244 15.8965C5.45752 15.9844 5.11767 16.6406 5.37549 17.1328C5.52197 17.4551 5.87353 17.6543 6.2251 17.6367C9.72314 17.6367 13.2153 17.6367 16.7134 17.6367C17.0767 17.6367 17.4282 17.3965 17.5395 17.0508C17.6978 16.6465 17.4868 16.1426 17.0884 15.9668C16.8657 15.8496 16.6079 15.8848 16.3677 15.8789C13.0864 15.8789 9.80517 15.8789 6.52392 15.8789C6.34814 15.8789 6.17236 15.8672 6.00244 15.8965ZM6.00244 19.4121C5.55713 19.4883 5.22314 19.9512 5.29931 20.3965C5.35205 20.8184 5.74463 21.1582 6.17236 21.1523C9.5708 21.1523 12.9692 21.1523 16.3677 21.1523C16.6372 21.1523 16.936 21.1816 17.1704 21.0234C17.5923 20.7832 17.727 20.1738 17.4399 19.7812C17.27 19.5234 16.9595 19.3828 16.6548 19.3945C13.2739 19.3945 9.89892 19.3945 6.51806 19.3945C6.34814 19.3945 6.17236 19.3828 6.00244 19.4121ZM6.00244 22.9277C5.55713 23.0039 5.22314 23.4668 5.29931 23.918C5.35205 24.3398 5.74463 24.6797 6.1665 24.6738C8.49267 24.6738 10.813 24.6738 13.1392 24.6738C13.4263 24.6855 13.7251 24.5566 13.895 24.3223C14.1001 24.0586 14.1294 23.6719 13.9712 23.3789C13.8247 23.0977 13.5142 22.9102 13.1978 22.916C10.9536 22.916 8.70361 22.916 6.45947 22.916C6.30713 22.9102 6.15478 22.9043 6.00244 22.9277Z" fill="#F6F6F7"/>
<path d="M15.8345 0.521484C18.0083 2.68945 20.1763 4.86328 22.3501 7.03125C20.4692 7.03125 18.5942 7.03125 16.7134 7.03125C16.3501 7.03125 16.0044 6.79102 15.8872 6.44531C15.8228 6.27539 15.8345 6.09375 15.8345 5.91797C15.8345 4.11914 15.8345 2.32031 15.8345 0.521484Z" fill="#41E88D"/>
</g>
<defs>
<clipPath id="clip0_222_31">
<rect width="22.8516" height="30" fill="white" transform="translate(0.0141602)"/>
</clipPath>
</defs>
</svg>
