<svg width="417" height="211" viewBox="0 0 417 211" fill="none" xmlns="http://www.w3.org/2000/svg">
<path d="M0 10C0 4.47716 4.47715 0 10 0H407C412.523 0 417 4.47715 417 10V211H0V10Z" fill="#0E1330"/>
<mask id="mask0_249_45" style="mask-type:alpha" maskUnits="userSpaceOnUse" x="0" y="0" width="417" height="211">
<path d="M0 10C0 4.47716 4.47715 0 10 0H407C412.523 0 417 4.47715 417 10V211H0V10Z" fill="#0E1330"/>
</mask>
<g mask="url(#mask0_249_45)">
<path d="M30.6364 19.3631V30.9995H29.2727L22.9318 21.8631H22.8182V30.9995H21.4091V19.3631H22.7727L29.1364 28.5222H29.25V19.3631H30.6364ZM36.9332 31.1813C36.0923 31.1813 35.367 30.9957 34.7571 30.6245C34.151 30.2495 33.6832 29.7268 33.3537 29.0563C33.0279 28.3821 32.8651 27.598 32.8651 26.7041C32.8651 25.8101 33.0279 25.0222 33.3537 24.3404C33.6832 23.6548 34.1416 23.1207 34.7287 22.7381C35.3196 22.3518 36.009 22.1586 36.7969 22.1586C37.2514 22.1586 37.7003 22.2344 38.1435 22.3859C38.5866 22.5374 38.9901 22.7836 39.3537 23.1245C39.7173 23.4616 40.0071 23.9086 40.223 24.4654C40.4389 25.0222 40.5469 25.7078 40.5469 26.5222V27.0904H33.8196V25.9313H39.1832C39.1832 25.4389 39.0848 24.9995 38.8878 24.6131C38.6946 24.2268 38.4181 23.9219 38.0582 23.6984C37.7022 23.4749 37.2817 23.3631 36.7969 23.3631C36.2628 23.3631 35.8007 23.4957 35.4105 23.7609C35.0241 24.0222 34.7268 24.3631 34.5185 24.7836C34.3101 25.2041 34.206 25.6548 34.206 26.1359V26.9086C34.206 27.5677 34.3196 28.1264 34.5469 28.5847C34.7779 29.0393 35.098 29.3859 35.5071 29.6245C35.9162 29.8594 36.3916 29.9768 36.9332 29.9768C37.2855 29.9768 37.6037 29.9275 37.8878 29.8291C38.1757 29.7268 38.4238 29.5753 38.6321 29.3745C38.8404 29.17 39.0014 28.9162 39.1151 28.6131L40.4105 28.9768C40.2741 29.4162 40.045 29.8025 39.723 30.1359C39.401 30.4654 39.0033 30.723 38.5298 30.9086C38.0563 31.0904 37.5241 31.1813 36.9332 31.1813ZM44.5639 30.9995L41.9048 22.2722H43.3139L45.2003 28.9541H45.2912L47.1548 22.2722H48.5866L50.4276 28.9313H50.5185L52.4048 22.2722H53.8139L51.1548 30.9995H49.8366L47.9276 24.295H47.7912L45.8821 30.9995H44.5639ZM60.2685 19.3631H61.9503L65.9048 29.0222H66.0412L69.9957 19.3631H71.6776V30.9995H70.3594V22.1586H70.2457L66.6094 30.9995H65.3366L61.7003 22.1586H61.5866V30.9995H60.2685V19.3631ZM77.9801 31.1813C77.1392 31.1813 76.4138 30.9957 75.804 30.6245C75.1979 30.2495 74.7301 29.7268 74.4006 29.0563C74.0748 28.3821 73.9119 27.598 73.9119 26.7041C73.9119 25.8101 74.0748 25.0222 74.4006 24.3404C74.7301 23.6548 75.1884 23.1207 75.7756 22.7381C76.3665 22.3518 77.0559 22.1586 77.8438 22.1586C78.2983 22.1586 78.7472 22.2344 79.1903 22.3859C79.6335 22.5374 80.0369 22.7836 80.4006 23.1245C80.7642 23.4616 81.054 23.9086 81.2699 24.4654C81.4858 25.0222 81.5938 25.7078 81.5938 26.5222V27.0904H74.8665V25.9313H80.2301C80.2301 25.4389 80.1316 24.9995 79.9347 24.6131C79.7415 24.2268 79.465 23.9219 79.1051 23.6984C78.7491 23.4749 78.3286 23.3631 77.8438 23.3631C77.3097 23.3631 76.8475 23.4957 76.4574 23.7609C76.071 24.0222 75.7737 24.3631 75.5653 24.7836C75.357 25.2041 75.2528 25.6548 75.2528 26.1359V26.9086C75.2528 27.5677 75.3665 28.1264 75.5938 28.5847C75.8248 29.0393 76.1449 29.3859 76.554 29.6245C76.9631 29.8594 77.4384 29.9768 77.9801 29.9768C78.3324 29.9768 78.6506 29.9275 78.9347 29.8291C79.2225 29.7268 79.4706 29.5753 79.679 29.3745C79.8873 29.17 80.0483 28.9162 80.1619 28.6131L81.4574 28.9768C81.321 29.4162 81.0919 29.8025 80.7699 30.1359C80.4479 30.4654 80.0502 30.723 79.5767 30.9086C79.1032 31.0904 78.571 31.1813 77.9801 31.1813ZM89.8153 24.2268L88.6108 24.5677C88.535 24.3669 88.4233 24.1719 88.2756 23.9825C88.1316 23.7893 87.9347 23.6302 87.6847 23.5052C87.4347 23.3802 87.1146 23.3177 86.7244 23.3177C86.1903 23.3177 85.7453 23.4408 85.3892 23.687C85.0369 23.9294 84.8608 24.2381 84.8608 24.6131C84.8608 24.9465 84.982 25.2097 85.2244 25.4029C85.4669 25.5961 85.8456 25.7571 86.3608 25.8859L87.6562 26.2041C88.4366 26.3935 89.018 26.6832 89.4006 27.0734C89.7831 27.4597 89.9744 27.9578 89.9744 28.5677C89.9744 29.0677 89.8305 29.5147 89.5426 29.9086C89.2585 30.3025 88.8608 30.6131 88.3494 30.8404C87.8381 31.0677 87.2434 31.1813 86.5653 31.1813C85.6752 31.1813 84.9384 30.9881 84.3551 30.6018C83.7718 30.2154 83.4025 29.651 83.2472 28.9086L84.5199 28.5904C84.6411 29.0601 84.8703 29.4124 85.2074 29.6472C85.5483 29.8821 85.9934 29.9995 86.5426 29.9995C87.1676 29.9995 87.6638 29.8669 88.0312 29.6018C88.4025 29.3328 88.5881 29.0109 88.5881 28.6359C88.5881 28.3328 88.482 28.0791 88.2699 27.8745C88.0578 27.6662 87.732 27.5109 87.2926 27.4086L85.8381 27.0677C85.0388 26.8783 84.4517 26.5847 84.0767 26.187C83.7055 25.7855 83.5199 25.2836 83.5199 24.6813C83.5199 24.1889 83.6581 23.7533 83.9347 23.3745C84.215 22.9957 84.5956 22.6984 85.0767 22.4825C85.5616 22.2666 86.1108 22.1586 86.7244 22.1586C87.5881 22.1586 88.2661 22.348 88.7585 22.7268C89.2547 23.1056 89.607 23.6056 89.8153 24.2268ZM98.1747 24.2268L96.9702 24.5677C96.8944 24.3669 96.7827 24.1719 96.6349 23.9825C96.491 23.7893 96.294 23.6302 96.044 23.5052C95.794 23.3802 95.474 23.3177 95.0838 23.3177C94.5497 23.3177 94.1046 23.4408 93.7486 23.687C93.3963 23.9294 93.2202 24.2381 93.2202 24.6131C93.2202 24.9465 93.3414 25.2097 93.5838 25.4029C93.8262 25.5961 94.205 25.7571 94.7202 25.8859L96.0156 26.2041C96.7959 26.3935 97.3774 26.6832 97.7599 27.0734C98.1425 27.4597 98.3338 27.9578 98.3338 28.5677C98.3338 29.0677 98.1899 29.5147 97.902 29.9086C97.6179 30.3025 97.2202 30.6131 96.7088 30.8404C96.1974 31.0677 95.6027 31.1813 94.9247 31.1813C94.0346 31.1813 93.2978 30.9881 92.7145 30.6018C92.1312 30.2154 91.7618 29.651 91.6065 28.9086L92.8793 28.5904C93.0005 29.0601 93.2296 29.4124 93.5668 29.6472C93.9077 29.8821 94.3527 29.9995 94.902 29.9995C95.527 29.9995 96.0232 29.8669 96.3906 29.6018C96.7618 29.3328 96.9474 29.0109 96.9474 28.6359C96.9474 28.3328 96.8414 28.0791 96.6293 27.8745C96.4171 27.6662 96.0914 27.5109 95.652 27.4086L94.1974 27.0677C93.3982 26.8783 92.8111 26.5847 92.4361 26.187C92.0649 25.7855 91.8793 25.2836 91.8793 24.6813C91.8793 24.1889 92.0175 23.7533 92.294 23.3745C92.5743 22.9957 92.955 22.6984 93.4361 22.4825C93.9209 22.2666 94.4702 22.1586 95.0838 22.1586C95.9474 22.1586 96.6255 22.348 97.1179 22.7268C97.6141 23.1056 97.9664 23.6056 98.1747 24.2268ZM102.92 31.2041C102.367 31.2041 101.866 31.0999 101.415 30.8916C100.964 30.6794 100.606 30.3745 100.341 29.9768C100.076 29.5753 99.9432 29.0904 99.9432 28.5222C99.9432 28.0222 100.042 27.6169 100.239 27.3063C100.436 26.9919 100.699 26.7457 101.028 26.5677C101.358 26.3897 101.722 26.2571 102.119 26.17C102.521 26.0791 102.924 26.0071 103.33 25.9541C103.86 25.8859 104.29 25.8347 104.619 25.8006C104.953 25.7628 105.195 25.7003 105.347 25.6131C105.502 25.526 105.58 25.3745 105.58 25.1586V25.1131C105.58 24.5525 105.426 24.1169 105.119 23.8063C104.816 23.4957 104.356 23.3404 103.739 23.3404C103.098 23.3404 102.597 23.4806 102.233 23.7609C101.869 24.0412 101.614 24.3404 101.466 24.6586L100.193 24.2041C100.42 23.6738 100.723 23.2609 101.102 22.9654C101.485 22.6662 101.902 22.4578 102.352 22.3404C102.807 22.2192 103.254 22.1586 103.693 22.1586C103.973 22.1586 104.295 22.1927 104.659 22.2609C105.027 22.3253 105.381 22.4597 105.722 22.6643C106.066 22.8688 106.352 23.1775 106.58 23.5904C106.807 24.0033 106.92 24.5563 106.92 25.2495V30.9995H105.58V29.8177H105.511C105.42 30.0071 105.269 30.2097 105.057 30.4256C104.845 30.6416 104.563 30.8253 104.21 30.9768C103.858 31.1283 103.428 31.2041 102.92 31.2041ZM103.125 29.9995C103.655 29.9995 104.102 29.8953 104.466 29.687C104.833 29.4787 105.11 29.2097 105.295 28.8802C105.485 28.5506 105.58 28.2041 105.58 27.8404V26.6131C105.523 26.6813 105.398 26.7438 105.205 26.8006C105.015 26.8537 104.795 26.901 104.545 26.9427C104.299 26.9806 104.059 27.0147 103.824 27.045C103.593 27.0715 103.405 27.0942 103.261 27.1131C102.913 27.1586 102.587 27.2325 102.284 27.3347C101.985 27.4332 101.742 27.5828 101.557 27.7836C101.375 27.9806 101.284 28.2495 101.284 28.5904C101.284 29.0563 101.456 29.4086 101.801 29.6472C102.15 29.8821 102.591 29.9995 103.125 29.9995ZM112.891 34.4541C112.243 34.4541 111.686 34.3707 111.22 34.2041C110.754 34.0412 110.366 33.8253 110.055 33.5563C109.749 33.2912 109.504 33.0071 109.322 32.7041L110.391 31.9541C110.512 32.1131 110.665 32.295 110.851 32.4995C111.036 32.7078 111.29 32.8878 111.612 33.0393C111.938 33.1946 112.364 33.2722 112.891 33.2722C113.595 33.2722 114.177 33.1018 114.635 32.7609C115.093 32.42 115.322 31.8859 115.322 31.1586V29.3859H115.209C115.11 29.545 114.97 29.7419 114.788 29.9768C114.61 30.2078 114.353 30.4143 114.016 30.5961C113.682 30.7741 113.232 30.8631 112.663 30.8631C111.959 30.8631 111.326 30.6965 110.766 30.3631C110.209 30.0298 109.768 29.545 109.442 28.9086C109.12 28.2722 108.959 27.4995 108.959 26.5904C108.959 25.6965 109.116 24.9181 109.43 24.2552C109.745 23.5885 110.182 23.0734 110.743 22.7097C111.304 22.3423 111.951 22.1586 112.686 22.1586C113.254 22.1586 113.705 22.2533 114.038 22.4427C114.375 22.6283 114.633 22.8404 114.811 23.0791C114.993 23.3139 115.133 23.5071 115.232 23.6586H115.368V22.2722H116.663V31.2495C116.663 31.9995 116.493 32.6094 116.152 33.0791C115.815 33.5525 115.36 33.8991 114.788 34.1188C114.22 34.3423 113.588 34.4541 112.891 34.4541ZM112.845 29.6586C113.383 29.6586 113.838 29.5355 114.209 29.2893C114.58 29.0431 114.862 28.6889 115.055 28.2268C115.249 27.7647 115.345 27.2116 115.345 26.5677C115.345 25.9389 115.25 25.384 115.061 24.9029C114.872 24.4219 114.591 24.045 114.22 23.7722C113.849 23.4995 113.391 23.3631 112.845 23.3631C112.277 23.3631 111.804 23.5071 111.425 23.795C111.05 24.0828 110.768 24.4692 110.578 24.9541C110.393 25.4389 110.3 25.9768 110.3 26.5677C110.3 27.1738 110.394 27.7097 110.584 28.1756C110.777 28.6378 111.061 29.0014 111.436 29.2666C111.815 29.5279 112.285 29.6586 112.845 29.6586ZM122.777 31.1813C121.936 31.1813 121.211 30.9957 120.601 30.6245C119.995 30.2495 119.527 29.7268 119.197 29.0563C118.872 28.3821 118.709 27.598 118.709 26.7041C118.709 25.8101 118.872 25.0222 119.197 24.3404C119.527 23.6548 119.985 23.1207 120.572 22.7381C121.163 22.3518 121.853 22.1586 122.641 22.1586C123.095 22.1586 123.544 22.2344 123.987 22.3859C124.43 22.5374 124.834 22.7836 125.197 23.1245C125.561 23.4616 125.851 23.9086 126.067 24.4654C126.283 25.0222 126.391 25.7078 126.391 26.5222V27.0904H119.663V25.9313H125.027C125.027 25.4389 124.929 24.9995 124.732 24.6131C124.538 24.2268 124.262 23.9219 123.902 23.6984C123.546 23.4749 123.125 23.3631 122.641 23.3631C122.107 23.3631 121.644 23.4957 121.254 23.7609C120.868 24.0222 120.571 24.3631 120.362 24.7836C120.154 25.2041 120.05 25.6548 120.05 26.1359V26.9086C120.05 27.5677 120.163 28.1264 120.391 28.5847C120.622 29.0393 120.942 29.3859 121.351 29.6245C121.76 29.8594 122.235 29.9768 122.777 29.9768C123.129 29.9768 123.447 29.9275 123.732 29.8291C124.019 29.7268 124.268 29.5753 124.476 29.3745C124.684 29.17 124.845 28.9162 124.959 28.6131L126.254 28.9768C126.118 29.4162 125.889 29.8025 125.567 30.1359C125.245 30.4654 124.847 30.723 124.374 30.9086C123.9 31.0904 123.368 31.1813 122.777 31.1813Z" fill="#F6F6F7"/>
<line x1="21" y1="133.501" x2="397" y2="133.501" stroke="#282D45"/>
<path d="M27.8011 114.363C27.7415 113.86 27.4995 113.469 27.0753 113.19C26.651 112.912 26.1307 112.772 25.5142 112.772C25.0634 112.772 24.669 112.845 24.331 112.991C23.9962 113.137 23.7344 113.338 23.5455 113.593C23.3598 113.848 23.267 114.138 23.267 114.463C23.267 114.735 23.3317 114.968 23.4609 115.164C23.5935 115.356 23.7625 115.517 23.968 115.646C24.1735 115.772 24.389 115.876 24.6143 115.959C24.8397 116.039 25.0469 116.103 25.2358 116.153L26.2699 116.432C26.535 116.501 26.83 116.597 27.1548 116.72C27.483 116.843 27.7962 117.01 28.0945 117.222C28.3961 117.431 28.6446 117.699 28.8402 118.027C29.0357 118.356 29.1335 118.758 29.1335 119.236C29.1335 119.786 28.9893 120.283 28.701 120.727C28.416 121.171 27.9983 121.524 27.4482 121.786C26.9013 122.048 26.2367 122.179 25.4545 122.179C24.7254 122.179 24.094 122.061 23.5604 121.826C23.0301 121.59 22.6125 121.262 22.3075 120.841C22.0059 120.42 21.8352 119.932 21.7955 119.375H23.0682C23.1013 119.759 23.2306 120.077 23.456 120.329C23.6847 120.578 23.973 120.763 24.321 120.886C24.6723 121.005 25.0502 121.065 25.4545 121.065C25.9252 121.065 26.3478 120.989 26.7223 120.836C27.0968 120.681 27.3935 120.465 27.6122 120.19C27.831 119.912 27.9403 119.587 27.9403 119.216C27.9403 118.878 27.8459 118.603 27.657 118.39C27.468 118.178 27.2195 118.006 26.9112 117.873C26.603 117.741 26.2699 117.625 25.9119 117.525L24.6591 117.167C23.8636 116.939 23.2339 116.612 22.7699 116.188C22.3059 115.764 22.0739 115.209 22.0739 114.522C22.0739 113.952 22.228 113.455 22.5362 113.031C22.8478 112.603 23.2654 112.272 23.7891 112.037C24.3161 111.798 24.9044 111.679 25.554 111.679C26.2102 111.679 26.7936 111.796 27.304 112.032C27.8144 112.264 28.2188 112.582 28.517 112.986C28.8187 113.391 28.9777 113.85 28.9943 114.363H27.8011ZM35.8141 118.878V114.363H36.9874V122H35.8141V120.707H35.7346C35.5556 121.095 35.2772 121.425 34.8993 121.696C34.5215 121.965 34.0442 122.099 33.4675 122.099C32.9902 122.099 32.566 121.995 32.1948 121.786C31.8236 121.574 31.5319 121.256 31.3198 120.831C31.1077 120.404 31.0016 119.865 31.0016 119.216V114.363H32.1749V119.136C32.1749 119.693 32.3307 120.137 32.6422 120.469C32.9571 120.8 33.3581 120.966 33.8453 120.966C34.137 120.966 34.4337 120.891 34.7353 120.742C35.0402 120.593 35.2954 120.364 35.5009 120.056C35.7097 119.748 35.8141 119.355 35.8141 118.878ZM39.2955 122V111.818H40.4688V115.576H40.5682C40.6544 115.444 40.7737 115.275 40.9261 115.069C41.0819 114.861 41.304 114.675 41.5923 114.513C41.884 114.347 42.2784 114.264 42.7756 114.264C43.4186 114.264 43.9853 114.425 44.4759 114.746C44.9664 115.068 45.3492 115.523 45.6243 116.113C45.8994 116.703 46.0369 117.399 46.0369 118.201C46.0369 119.01 45.8994 119.711 45.6243 120.304C45.3492 120.894 44.968 121.352 44.4808 121.677C43.9936 121.998 43.4318 122.159 42.7955 122.159C42.3049 122.159 41.9122 122.078 41.6172 121.915C41.3222 121.75 41.0952 121.562 40.9361 121.353C40.777 121.141 40.6544 120.966 40.5682 120.826H40.429V122H39.2955ZM40.4489 118.182C40.4489 118.758 40.5334 119.267 40.7024 119.708C40.8714 120.145 41.1184 120.488 41.4432 120.737C41.768 120.982 42.1657 121.105 42.6364 121.105C43.1269 121.105 43.5362 120.976 43.8643 120.717C44.1958 120.455 44.4444 120.104 44.6101 119.663C44.7791 119.219 44.8636 118.725 44.8636 118.182C44.8636 117.645 44.7808 117.161 44.6151 116.73C44.4527 116.296 44.2057 115.953 43.8743 115.701C43.5462 115.446 43.1335 115.318 42.6364 115.318C42.1591 115.318 41.758 115.439 41.4332 115.681C41.1084 115.92 40.8632 116.254 40.6974 116.685C40.5317 117.113 40.4489 117.611 40.4489 118.182ZM47.8317 114.363H49.005V122.557C49.005 123.027 48.9238 123.435 48.7614 123.78C48.6023 124.124 48.3603 124.391 48.0355 124.58C47.714 124.769 47.308 124.863 46.8175 124.863C46.7777 124.863 46.7379 124.863 46.6982 124.863C46.6584 124.863 46.6186 124.863 46.5788 124.863V123.77C46.6186 123.77 46.6551 123.77 46.6882 123.77C46.7214 123.77 46.7578 123.77 46.7976 123.77C47.1555 123.77 47.4174 123.664 47.5831 123.451C47.7488 123.243 47.8317 122.944 47.8317 122.557V114.363ZM48.4084 113.091C48.1797 113.091 47.9825 113.013 47.8168 112.857C47.6544 112.701 47.5732 112.514 47.5732 112.295C47.5732 112.076 47.6544 111.889 47.8168 111.733C47.9825 111.578 48.1797 111.5 48.4084 111.5C48.6371 111.5 48.8326 111.578 48.995 111.733C49.1607 111.889 49.2436 112.076 49.2436 112.295C49.2436 112.514 49.1607 112.701 48.995 112.857C48.8326 113.013 48.6371 113.091 48.4084 113.091ZM54.3556 122.159C53.6199 122.159 52.9851 121.996 52.4515 121.672C51.9212 121.344 51.5119 120.886 51.2235 120.299C50.9385 119.71 50.796 119.023 50.796 118.241C50.796 117.459 50.9385 116.77 51.2235 116.173C51.5119 115.573 51.9129 115.106 52.4267 114.771C52.9437 114.433 53.5469 114.264 54.2363 114.264C54.6341 114.264 55.0268 114.33 55.4146 114.463C55.8024 114.595 56.1554 114.811 56.4735 115.109C56.7917 115.404 57.0453 115.795 57.2342 116.282C57.4231 116.77 57.5176 117.37 57.5176 118.082V118.579H51.6312V117.565H56.3244C56.3244 117.134 56.2382 116.75 56.0659 116.412C55.8968 116.074 55.6549 115.807 55.34 115.611C55.0285 115.416 54.6606 115.318 54.2363 115.318C53.769 115.318 53.3646 115.434 53.0233 115.666C52.6852 115.895 52.425 116.193 52.2427 116.561C52.0604 116.929 51.9693 117.323 51.9693 117.744V118.42C51.9693 118.997 52.0687 119.486 52.2676 119.887C52.4698 120.285 52.7498 120.588 53.1078 120.797C53.4657 121.002 53.8817 121.105 54.3556 121.105C54.6639 121.105 54.9423 121.062 55.1909 120.976C55.4428 120.886 55.6599 120.754 55.8422 120.578C56.0244 120.399 56.1653 120.177 56.2647 119.912L57.3983 120.23C57.2789 120.614 57.0784 120.952 56.7967 121.244C56.515 121.532 56.167 121.758 55.7527 121.92C55.3384 122.079 54.8727 122.159 54.3556 122.159ZM62.4047 122.159C61.6887 122.159 61.0723 121.99 60.5552 121.652C60.0382 121.314 59.6404 120.848 59.362 120.255C59.0836 119.661 58.9444 118.984 58.9444 118.221C58.9444 117.446 59.0869 116.761 59.372 116.168C59.6603 115.571 60.0614 115.106 60.5751 114.771C61.0922 114.433 61.6954 114.264 62.3848 114.264C62.9217 114.264 63.4056 114.363 63.8365 114.562C64.2673 114.761 64.6203 115.04 64.8954 115.397C65.1705 115.755 65.3412 116.173 65.4075 116.65H64.2342C64.1447 116.302 63.9458 115.994 63.6376 115.726C63.3327 115.454 62.9217 115.318 62.4047 115.318C61.9473 115.318 61.5462 115.437 61.2015 115.676C60.8601 115.911 60.5933 116.244 60.4011 116.675C60.2122 117.103 60.1177 117.605 60.1177 118.182C60.1177 118.772 60.2105 119.285 60.3961 119.723C60.585 120.16 60.8502 120.5 61.1916 120.742C61.5363 120.984 61.9406 121.105 62.4047 121.105C62.7096 121.105 62.9863 121.052 63.2349 120.946C63.4835 120.84 63.694 120.687 63.8663 120.488C64.0386 120.29 64.1613 120.051 64.2342 119.772H65.4075C65.3412 120.223 65.1771 120.629 64.9153 120.991C64.6568 121.348 64.3137 121.634 63.8862 121.846C63.4619 122.054 62.9681 122.159 62.4047 122.159ZM70.4437 114.363V115.358H66.4863V114.363H70.4437ZM67.6397 112.534H68.813V119.812C68.813 120.144 68.8611 120.392 68.9572 120.558C69.0566 120.72 69.1826 120.83 69.335 120.886C69.4908 120.939 69.6549 120.966 69.8272 120.966C69.9565 120.966 70.0626 120.959 70.1454 120.946C70.2283 120.929 70.2946 120.916 70.3443 120.906L70.5829 121.96C70.5034 121.99 70.3923 122.02 70.2498 122.049C70.1073 122.083 69.9267 122.099 69.7079 122.099C69.3765 122.099 69.0517 122.028 68.7335 121.885C68.4186 121.743 68.1568 121.526 67.948 121.234C67.7425 120.942 67.6397 120.575 67.6397 120.13V112.534Z" fill="#8F9BB7"/>
<path d="M96.375 122H93.233V111.818H96.5142C97.5019 111.818 98.3471 112.022 99.0497 112.429C99.7524 112.834 100.291 113.415 100.665 114.174C101.04 114.93 101.227 115.835 101.227 116.889C101.227 117.95 101.038 118.863 100.661 119.628C100.283 120.391 99.7325 120.977 99.0099 121.388C98.2874 121.796 97.4091 122 96.375 122ZM94.4659 120.906H96.2955C97.1373 120.906 97.835 120.744 98.3885 120.419C98.942 120.094 99.3546 119.632 99.6264 119.032C99.8982 118.432 100.034 117.718 100.034 116.889C100.034 116.067 99.8999 115.359 99.6314 114.766C99.3629 114.169 98.9619 113.712 98.4283 113.394C97.8946 113.072 97.2301 112.912 96.4347 112.912H94.4659V120.906ZM105.384 122.179C104.9 122.179 104.46 122.088 104.066 121.905C103.672 121.72 103.358 121.453 103.126 121.105C102.894 120.754 102.778 120.329 102.778 119.832C102.778 119.395 102.865 119.04 103.037 118.768C103.209 118.493 103.44 118.278 103.728 118.122C104.016 117.966 104.335 117.85 104.683 117.774C105.034 117.694 105.387 117.631 105.741 117.585C106.205 117.525 106.582 117.481 106.87 117.451C107.162 117.418 107.374 117.363 107.506 117.287C107.642 117.21 107.71 117.078 107.71 116.889V116.849C107.71 116.359 107.576 115.978 107.308 115.706C107.042 115.434 106.64 115.298 106.099 115.298C105.539 115.298 105.1 115.421 104.782 115.666C104.464 115.911 104.24 116.173 104.111 116.451L102.997 116.054C103.196 115.59 103.461 115.228 103.793 114.97C104.127 114.708 104.492 114.526 104.886 114.423C105.284 114.317 105.675 114.264 106.06 114.264C106.305 114.264 106.587 114.294 106.905 114.353C107.226 114.41 107.536 114.527 107.835 114.706C108.136 114.885 108.386 115.156 108.585 115.517C108.784 115.878 108.884 116.362 108.884 116.969V122H107.71V120.966H107.651C107.571 121.131 107.438 121.309 107.253 121.498C107.067 121.687 106.82 121.847 106.512 121.98C106.204 122.112 105.828 122.179 105.384 122.179ZM105.562 121.125C106.027 121.125 106.418 121.034 106.736 120.851C107.057 120.669 107.299 120.434 107.462 120.145C107.627 119.857 107.71 119.554 107.71 119.236V118.162C107.661 118.221 107.551 118.276 107.382 118.326C107.216 118.372 107.024 118.414 106.805 118.45C106.59 118.483 106.379 118.513 106.174 118.54C105.972 118.563 105.808 118.583 105.682 118.599C105.377 118.639 105.092 118.704 104.827 118.793C104.565 118.879 104.353 119.01 104.19 119.186C104.031 119.358 103.952 119.594 103.952 119.892C103.952 120.299 104.103 120.608 104.404 120.817C104.709 121.022 105.095 121.125 105.562 121.125ZM114.127 122.159C113.411 122.159 112.795 121.99 112.278 121.652C111.761 121.314 111.363 120.848 111.085 120.255C110.806 119.661 110.667 118.984 110.667 118.221C110.667 117.446 110.81 116.761 111.095 116.168C111.383 115.571 111.784 115.106 112.298 114.771C112.815 114.433 113.418 114.264 114.107 114.264C114.644 114.264 115.128 114.363 115.559 114.562C115.99 114.761 116.343 115.04 116.618 115.397C116.893 115.755 117.064 116.173 117.13 116.65H115.957C115.867 116.302 115.669 115.994 115.36 115.726C115.055 115.454 114.644 115.318 114.127 115.318C113.67 115.318 113.269 115.437 112.924 115.676C112.583 115.911 112.316 116.244 112.124 116.675C111.935 117.103 111.84 117.605 111.84 118.182C111.84 118.772 111.933 119.285 112.119 119.723C112.308 120.16 112.573 120.5 112.914 120.742C113.259 120.984 113.663 121.105 114.127 121.105C114.432 121.105 114.709 121.052 114.958 120.946C115.206 120.84 115.417 120.687 115.589 120.488C115.761 120.29 115.884 120.051 115.957 119.772H117.13C117.064 120.223 116.9 120.629 116.638 120.991C116.379 121.348 116.036 121.634 115.609 121.846C115.185 122.054 114.691 122.159 114.127 122.159ZM118.845 122V114.363H120.019V122H118.845ZM119.442 113.091C119.213 113.091 119.016 113.013 118.85 112.857C118.688 112.701 118.607 112.514 118.607 112.295C118.607 112.076 118.688 111.889 118.85 111.733C119.016 111.578 119.213 111.5 119.442 111.5C119.671 111.5 119.866 111.578 120.029 111.733C120.194 111.889 120.277 112.076 120.277 112.295C120.277 112.514 120.194 112.701 120.029 112.857C119.866 113.013 119.671 113.091 119.442 113.091ZM123.341 111.818V122H122.168V111.818H123.341ZM125.49 122V114.363H126.663V122H125.49ZM126.086 113.091C125.858 113.091 125.661 113.013 125.495 112.857C125.332 112.701 125.251 112.514 125.251 112.295C125.251 112.076 125.332 111.889 125.495 111.733C125.661 111.578 125.858 111.5 126.086 111.5C126.315 111.5 126.511 111.578 126.673 111.733C126.839 111.889 126.922 112.076 126.922 112.295C126.922 112.514 126.839 112.701 126.673 112.857C126.511 113.013 126.315 113.091 126.086 113.091ZM134.221 116.074L133.167 116.372C133.101 116.196 133.003 116.026 132.874 115.86C132.748 115.691 132.576 115.552 132.357 115.442C132.138 115.333 131.858 115.278 131.517 115.278C131.049 115.278 130.66 115.386 130.348 115.601C130.04 115.813 129.886 116.084 129.886 116.412C129.886 116.703 129.992 116.934 130.204 117.103C130.416 117.272 130.748 117.413 131.199 117.525L132.332 117.804C133.015 117.969 133.524 118.223 133.858 118.564C134.193 118.902 134.36 119.338 134.36 119.872C134.36 120.309 134.234 120.701 133.983 121.045C133.734 121.39 133.386 121.662 132.939 121.861C132.491 122.059 131.971 122.159 131.377 122.159C130.599 122.159 129.954 121.99 129.444 121.652C128.933 121.314 128.61 120.82 128.474 120.17L129.588 119.892C129.694 120.303 129.894 120.611 130.189 120.817C130.488 121.022 130.877 121.125 131.358 121.125C131.904 121.125 132.339 121.009 132.66 120.777C132.985 120.541 133.147 120.26 133.147 119.932C133.147 119.666 133.055 119.444 132.869 119.265C132.683 119.083 132.398 118.947 132.014 118.858L130.741 118.559C130.042 118.394 129.528 118.137 129.2 117.789C128.875 117.437 128.713 116.998 128.713 116.471C128.713 116.04 128.834 115.659 129.076 115.328C129.321 114.996 129.654 114.736 130.075 114.547C130.499 114.358 130.98 114.264 131.517 114.264C132.272 114.264 132.866 114.43 133.297 114.761C133.731 115.093 134.039 115.53 134.221 116.074ZM136.127 122V114.363H137.3V122H136.127ZM136.723 113.091C136.494 113.091 136.297 113.013 136.132 112.857C135.969 112.701 135.888 112.514 135.888 112.295C135.888 112.076 135.969 111.889 136.132 111.733C136.297 111.578 136.494 111.5 136.723 111.5C136.952 111.5 137.147 111.578 137.31 111.733C137.476 111.889 137.558 112.076 137.558 112.295C137.558 112.514 137.476 112.701 137.31 112.857C137.147 113.013 136.952 113.091 136.723 113.091ZM144.858 116.074L143.804 116.372C143.738 116.196 143.64 116.026 143.511 115.86C143.385 115.691 143.212 115.552 142.994 115.442C142.775 115.333 142.495 115.278 142.153 115.278C141.686 115.278 141.297 115.386 140.985 115.601C140.677 115.813 140.523 116.084 140.523 116.412C140.523 116.703 140.629 116.934 140.841 117.103C141.053 117.272 141.384 117.413 141.835 117.525L142.969 117.804C143.652 117.969 144.16 118.223 144.495 118.564C144.83 118.902 144.997 119.338 144.997 119.872C144.997 120.309 144.871 120.701 144.619 121.045C144.371 121.39 144.023 121.662 143.575 121.861C143.128 122.059 142.607 122.159 142.014 122.159C141.235 122.159 140.591 121.99 140.08 121.652C139.57 121.314 139.247 120.82 139.111 120.17L140.224 119.892C140.33 120.303 140.531 120.611 140.826 120.817C141.124 121.022 141.514 121.125 141.994 121.125C142.541 121.125 142.975 121.009 143.297 120.777C143.622 120.541 143.784 120.26 143.784 119.932C143.784 119.666 143.691 119.444 143.506 119.265C143.32 119.083 143.035 118.947 142.651 118.858L141.378 118.559C140.679 118.394 140.165 118.137 139.837 117.789C139.512 117.437 139.349 116.998 139.349 116.471C139.349 116.04 139.47 115.659 139.712 115.328C139.958 114.996 140.291 114.736 140.712 114.547C141.136 114.358 141.616 114.264 142.153 114.264C142.909 114.264 143.502 114.43 143.933 114.761C144.367 115.093 144.676 115.53 144.858 116.074ZM154.022 114.363V115.358H150.064V114.363H154.022ZM151.218 112.534H152.391V119.812C152.391 120.144 152.439 120.392 152.535 120.558C152.635 120.72 152.761 120.83 152.913 120.886C153.069 120.939 153.233 120.966 153.405 120.966C153.535 120.966 153.641 120.959 153.724 120.946C153.806 120.929 153.873 120.916 153.922 120.906L154.161 121.96C154.081 121.99 153.97 122.02 153.828 122.049C153.685 122.083 153.505 122.099 153.286 122.099C152.955 122.099 152.63 122.028 152.312 121.885C151.997 121.743 151.735 121.526 151.526 121.234C151.321 120.942 151.218 120.575 151.218 120.13V112.534ZM158.906 122.159C158.171 122.159 157.536 121.996 157.002 121.672C156.472 121.344 156.063 120.886 155.774 120.299C155.489 119.71 155.347 119.023 155.347 118.241C155.347 117.459 155.489 116.77 155.774 116.173C156.063 115.573 156.464 115.106 156.977 114.771C157.494 114.433 158.098 114.264 158.787 114.264C159.185 114.264 159.578 114.33 159.965 114.463C160.353 114.595 160.706 114.811 161.024 115.109C161.343 115.404 161.596 115.795 161.785 116.282C161.974 116.77 162.068 117.37 162.068 118.082V118.579H156.182V117.565H160.875C160.875 117.134 160.789 116.75 160.617 116.412C160.448 116.074 160.206 115.807 159.891 115.611C159.579 115.416 159.211 115.318 158.787 115.318C158.32 115.318 157.915 115.434 157.574 115.666C157.236 115.895 156.976 116.193 156.794 116.561C156.611 116.929 156.52 117.323 156.52 117.744V118.42C156.52 118.997 156.619 119.486 156.818 119.887C157.021 120.285 157.301 120.588 157.659 120.797C158.017 121.002 158.432 121.105 158.906 121.105C159.215 121.105 159.493 121.062 159.742 120.976C159.994 120.886 160.211 120.754 160.393 120.578C160.575 120.399 160.716 120.177 160.816 119.912L161.949 120.23C161.83 120.614 161.629 120.952 161.347 121.244C161.066 121.532 160.718 121.758 160.303 121.92C159.889 122.079 159.423 122.159 158.906 122.159ZM165.026 111.818V122H163.853V111.818H165.026ZM168.349 111.818V122H167.175V111.818H168.349ZM175.31 118.878V114.363H176.483V122H175.31V120.707H175.231C175.052 121.095 174.773 121.425 174.395 121.696C174.018 121.965 173.54 122.099 172.964 122.099C172.486 122.099 172.062 121.995 171.691 121.786C171.32 121.574 171.028 121.256 170.816 120.831C170.604 120.404 170.498 119.865 170.498 119.216V114.363H171.671V119.136C171.671 119.693 171.827 120.137 172.138 120.469C172.453 120.8 172.854 120.966 173.341 120.966C173.633 120.966 173.93 120.891 174.231 120.742C174.536 120.593 174.791 120.364 174.997 120.056C175.206 119.748 175.31 119.355 175.31 118.878ZM184.042 116.074L182.988 116.372C182.921 116.196 182.824 116.026 182.694 115.86C182.568 115.691 182.396 115.552 182.177 115.442C181.958 115.333 181.678 115.278 181.337 115.278C180.87 115.278 180.48 115.386 180.169 115.601C179.86 115.813 179.706 116.084 179.706 116.412C179.706 116.703 179.812 116.934 180.025 117.103C180.237 117.272 180.568 117.413 181.019 117.525L182.152 117.804C182.835 117.969 183.344 118.223 183.679 118.564C184.013 118.902 184.181 119.338 184.181 119.872C184.181 120.309 184.055 120.701 183.803 121.045C183.554 121.39 183.206 121.662 182.759 121.861C182.311 122.059 181.791 122.159 181.198 122.159C180.419 122.159 179.774 121.99 179.264 121.652C178.753 121.314 178.43 120.82 178.294 120.17L179.408 119.892C179.514 120.303 179.715 120.611 180.01 120.817C180.308 121.022 180.697 121.125 181.178 121.125C181.725 121.125 182.159 121.009 182.48 120.777C182.805 120.541 182.968 120.26 182.968 119.932C182.968 119.666 182.875 119.444 182.689 119.265C182.504 119.083 182.219 118.947 181.834 118.858L180.561 118.559C179.862 118.394 179.348 118.137 179.02 117.789C178.695 117.437 178.533 116.998 178.533 116.471C178.533 116.04 178.654 115.659 178.896 115.328C179.141 114.996 179.474 114.736 179.895 114.547C180.319 114.358 180.8 114.264 181.337 114.264C182.093 114.264 182.686 114.43 183.117 114.761C183.551 115.093 183.859 115.53 184.042 116.074ZM193.205 114.363V115.358H189.248V114.363H193.205ZM190.401 112.534H191.575V119.812C191.575 120.144 191.623 120.392 191.719 120.558C191.818 120.72 191.944 120.83 192.097 120.886C192.253 120.939 192.417 120.966 192.589 120.966C192.718 120.966 192.824 120.959 192.907 120.946C192.99 120.929 193.056 120.916 193.106 120.906L193.345 121.96C193.265 121.99 193.154 122.02 193.012 122.049C192.869 122.083 192.688 122.099 192.47 122.099C192.138 122.099 191.813 122.028 191.495 121.885C191.18 121.743 190.919 121.526 190.71 121.234C190.504 120.942 190.401 120.575 190.401 120.13V112.534ZM194.97 122V114.363H196.144V122H194.97ZM195.567 113.091C195.338 113.091 195.141 113.013 194.975 112.857C194.813 112.701 194.732 112.514 194.732 112.295C194.732 112.076 194.813 111.889 194.975 111.733C195.141 111.578 195.338 111.5 195.567 111.5C195.796 111.5 195.991 111.578 196.154 111.733C196.319 111.889 196.402 112.076 196.402 112.295C196.402 112.514 196.319 112.701 196.154 112.857C195.991 113.013 195.796 113.091 195.567 113.091ZM199.466 117.406V122H198.293V114.363H199.426V115.557H199.526C199.705 115.169 199.976 114.857 200.341 114.622C200.705 114.383 201.176 114.264 201.753 114.264C202.27 114.264 202.722 114.37 203.11 114.582C203.498 114.791 203.799 115.109 204.015 115.537C204.23 115.961 204.338 116.498 204.338 117.147V122H203.165V117.227C203.165 116.627 203.009 116.16 202.697 115.825C202.386 115.487 201.958 115.318 201.415 115.318C201.04 115.318 200.705 115.399 200.411 115.562C200.119 115.724 199.888 115.961 199.719 116.272C199.55 116.584 199.466 116.962 199.466 117.406ZM209.584 122.159C208.868 122.159 208.252 121.99 207.735 121.652C207.218 121.314 206.82 120.848 206.542 120.255C206.263 119.661 206.124 118.984 206.124 118.221C206.124 117.446 206.267 116.761 206.552 116.168C206.84 115.571 207.241 115.106 207.755 114.771C208.272 114.433 208.875 114.264 209.564 114.264C210.101 114.264 210.585 114.363 211.016 114.562C211.447 114.761 211.8 115.04 212.075 115.397C212.35 115.755 212.521 116.173 212.587 116.65H211.414C211.324 116.302 211.126 115.994 210.817 115.726C210.512 115.454 210.101 115.318 209.584 115.318C209.127 115.318 208.726 115.437 208.381 115.676C208.04 115.911 207.773 116.244 207.581 116.675C207.392 117.103 207.297 117.605 207.297 118.182C207.297 118.772 207.39 119.285 207.576 119.723C207.765 120.16 208.03 120.5 208.371 120.742C208.716 120.984 209.12 121.105 209.584 121.105C209.889 121.105 210.166 121.052 210.415 120.946C210.663 120.84 210.874 120.687 211.046 120.488C211.218 120.29 211.341 120.051 211.414 119.772H212.587C212.521 120.223 212.357 120.629 212.095 120.991C211.836 121.348 211.493 121.634 211.066 121.846C210.642 122.054 210.148 122.159 209.584 122.159Z" fill="#F6F6F7"/>
<line x1="21" y1="178.498" x2="397" y2="178.498" stroke="#282D45"/>
<path d="M22.233 167.001V156.819H28.3381V157.913H23.4659V161.353H27.8807V162.447H23.4659V167.001H22.233ZM30.2086 167.001V159.365H31.3422V160.518H31.4217C31.5609 160.14 31.8128 159.834 32.1774 159.598C32.542 159.363 32.9529 159.245 33.4103 159.245C33.4965 159.245 33.6042 159.247 33.7335 159.25C33.8627 159.254 33.9605 159.259 34.0268 159.265V160.458C33.987 160.448 33.8959 160.434 33.7534 160.414C33.6142 160.39 33.4667 160.379 33.3109 160.379C32.9397 160.379 32.6083 160.457 32.3166 160.612C32.0282 160.765 31.7995 160.977 31.6305 161.249C31.4648 161.517 31.3819 161.824 31.3819 162.169V167.001H30.2086ZM38.2875 167.16C37.5981 167.16 36.9932 166.996 36.4728 166.668C35.9558 166.34 35.5514 165.881 35.2598 165.291C34.9714 164.701 34.8272 164.011 34.8272 163.223C34.8272 162.427 34.9714 161.733 35.2598 161.139C35.5514 160.546 35.9558 160.085 36.4728 159.757C36.9932 159.429 37.5981 159.265 38.2875 159.265C38.9769 159.265 39.5801 159.429 40.0971 159.757C40.6175 160.085 41.0218 160.546 41.3102 161.139C41.6019 161.733 41.7477 162.427 41.7477 163.223C41.7477 164.011 41.6019 164.701 41.3102 165.291C41.0218 165.881 40.6175 166.34 40.0971 166.668C39.5801 166.996 38.9769 167.16 38.2875 167.16ZM38.2875 166.106C38.8111 166.106 39.242 165.972 39.5801 165.703C39.9181 165.435 40.1684 165.082 40.3308 164.644C40.4932 164.207 40.5744 163.733 40.5744 163.223C40.5744 162.712 40.4932 162.237 40.3308 161.796C40.1684 161.355 39.9181 160.999 39.5801 160.727C39.242 160.455 38.8111 160.319 38.2875 160.319C37.7638 160.319 37.3329 160.455 36.9949 160.727C36.6568 160.999 36.4065 161.355 36.2441 161.796C36.0817 162.237 36.0005 162.712 36.0005 163.223C36.0005 163.733 36.0817 164.207 36.2441 164.644C36.4065 165.082 36.6568 165.435 36.9949 165.703C37.3329 165.972 37.7638 166.106 38.2875 166.106ZM43.5387 167.001V159.365H44.6722V160.558H44.7717C44.9308 160.15 45.1876 159.834 45.5423 159.608C45.8969 159.38 46.3228 159.265 46.82 159.265C47.3237 159.265 47.743 159.38 48.0778 159.608C48.4158 159.834 48.6793 160.15 48.8683 160.558H48.9478C49.1433 160.163 49.4367 159.85 49.8278 159.618C50.2189 159.383 50.6879 159.265 51.2347 159.265C51.9175 159.265 52.476 159.479 52.9102 159.907C53.3443 160.331 53.5614 160.992 53.5614 161.89V167.001H52.3881V161.89C52.3881 161.327 52.234 160.924 51.9258 160.682C51.6175 160.44 51.2546 160.319 50.837 160.319C50.3001 160.319 49.8841 160.482 49.5891 160.806C49.2942 161.128 49.1467 161.536 49.1467 162.029V167.001H47.9535V161.771C47.9535 161.337 47.8126 160.987 47.5309 160.722C47.2492 160.453 46.8862 160.319 46.4421 160.319C46.1372 160.319 45.8522 160.4 45.587 160.563C45.3252 160.725 45.113 160.951 44.9506 161.239C44.7915 161.524 44.712 161.854 44.712 162.228V167.001H43.5387Z" fill="#8F9BB7"/>
<path d="M95.321 167.18C94.8371 167.18 94.398 167.089 94.0036 166.907C93.6091 166.721 93.2959 166.454 93.0639 166.106C92.8319 165.755 92.7159 165.331 92.7159 164.833C92.7159 164.396 92.8021 164.041 92.9744 163.769C93.1468 163.494 93.3771 163.279 93.6655 163.123C93.9538 162.967 94.272 162.851 94.62 162.775C94.9714 162.696 95.3243 162.633 95.679 162.586C96.143 162.527 96.5192 162.482 96.8075 162.452C97.0992 162.419 97.3113 162.364 97.4439 162.288C97.5798 162.212 97.6477 162.079 97.6477 161.89V161.85C97.6477 161.36 97.5135 160.979 97.245 160.707C96.9799 160.435 96.5772 160.299 96.0369 160.299C95.4768 160.299 95.0376 160.422 94.7195 160.667C94.4013 160.912 94.1776 161.174 94.0483 161.453L92.9347 161.055C93.1335 160.591 93.3987 160.23 93.7301 159.971C94.0649 159.709 94.4295 159.527 94.8239 159.424C95.2216 159.318 95.6127 159.265 95.9972 159.265C96.2424 159.265 96.5241 159.295 96.8423 159.355C97.1638 159.411 97.4737 159.529 97.772 159.708C98.0736 159.887 98.3239 160.157 98.5227 160.518C98.7216 160.879 98.821 161.363 98.821 161.97V167.001H97.6477V165.967H97.5881C97.5085 166.133 97.3759 166.31 97.1903 166.499C97.0047 166.688 96.7578 166.849 96.4496 166.981C96.1413 167.114 95.7652 167.18 95.321 167.18ZM95.5 166.126C95.964 166.126 96.3551 166.035 96.6733 165.853C96.9948 165.67 97.2367 165.435 97.3991 165.147C97.5649 164.858 97.6477 164.555 97.6477 164.237V163.163C97.598 163.223 97.4886 163.277 97.3196 163.327C97.1539 163.373 96.9616 163.415 96.7429 163.451C96.5275 163.484 96.317 163.514 96.1115 163.541C95.9093 163.564 95.7453 163.584 95.6193 163.6C95.3144 163.64 95.0294 163.705 94.7642 163.794C94.5024 163.88 94.2902 164.011 94.1278 164.187C93.9688 164.359 93.8892 164.595 93.8892 164.893C93.8892 165.301 94.04 165.609 94.3416 165.818C94.6465 166.023 95.0327 166.126 95.5 166.126ZM104.065 167.16C103.349 167.16 102.732 166.991 102.215 166.653C101.698 166.315 101.301 165.849 101.022 165.256C100.744 164.663 100.605 163.985 100.605 163.223C100.605 162.447 100.747 161.763 101.032 161.169C101.32 160.573 101.722 160.107 102.235 159.772C102.752 159.434 103.356 159.265 104.045 159.265C104.582 159.265 105.066 159.365 105.497 159.563C105.927 159.762 106.28 160.041 106.556 160.399C106.831 160.757 107.001 161.174 107.068 161.652H105.894C105.805 161.304 105.606 160.995 105.298 160.727C104.993 160.455 104.582 160.319 104.065 160.319C103.607 160.319 103.206 160.438 102.862 160.677C102.52 160.912 102.253 161.246 102.061 161.676C101.872 162.104 101.778 162.606 101.778 163.183C101.778 163.773 101.871 164.286 102.056 164.724C102.245 165.161 102.51 165.501 102.852 165.743C103.196 165.985 103.601 166.106 104.065 166.106C104.37 166.106 104.646 166.053 104.895 165.947C105.144 165.841 105.354 165.688 105.526 165.49C105.699 165.291 105.821 165.052 105.894 164.774H107.068C107.001 165.224 106.837 165.63 106.575 165.992C106.317 166.35 105.974 166.635 105.546 166.847C105.122 167.056 104.628 167.16 104.065 167.16ZM108.783 167.001V159.365H109.956V167.001H108.783ZM109.379 158.092C109.151 158.092 108.954 158.014 108.788 157.858C108.625 157.702 108.544 157.515 108.544 157.296C108.544 157.078 108.625 156.89 108.788 156.735C108.954 156.579 109.151 156.501 109.379 156.501C109.608 156.501 109.804 156.579 109.966 156.735C110.132 156.89 110.215 157.078 110.215 157.296C110.215 157.515 110.132 157.702 109.966 157.858C109.804 158.014 109.608 158.092 109.379 158.092ZM113.278 156.819V167.001H112.105V156.819H113.278ZM115.427 167.001V159.365H116.601V167.001H115.427ZM116.024 158.092C115.795 158.092 115.598 158.014 115.432 157.858C115.27 157.702 115.189 157.515 115.189 157.296C115.189 157.078 115.27 156.89 115.432 156.735C115.598 156.579 115.795 156.501 116.024 156.501C116.253 156.501 116.448 156.579 116.611 156.735C116.776 156.89 116.859 157.078 116.859 157.296C116.859 157.515 116.776 157.702 116.611 157.858C116.448 158.014 116.253 158.092 116.024 158.092ZM124.159 161.075L123.105 161.373C123.038 161.197 122.941 161.027 122.811 160.861C122.685 160.692 122.513 160.553 122.294 160.443C122.076 160.334 121.796 160.279 121.454 160.279C120.987 160.279 120.597 160.387 120.286 160.603C119.978 160.815 119.824 161.085 119.824 161.413C119.824 161.705 119.93 161.935 120.142 162.104C120.354 162.273 120.685 162.414 121.136 162.527L122.27 162.805C122.952 162.971 123.461 163.224 123.796 163.566C124.131 163.904 124.298 164.34 124.298 164.873C124.298 165.311 124.172 165.702 123.92 166.046C123.672 166.391 123.324 166.663 122.876 166.862C122.429 167.061 121.908 167.16 121.315 167.16C120.536 167.16 119.891 166.991 119.381 166.653C118.871 166.315 118.547 165.821 118.412 165.171L119.525 164.893C119.631 165.304 119.832 165.612 120.127 165.818C120.425 166.023 120.815 166.126 121.295 166.126C121.842 166.126 122.276 166.01 122.598 165.778C122.922 165.543 123.085 165.261 123.085 164.933C123.085 164.668 122.992 164.446 122.806 164.267C122.621 164.084 122.336 163.948 121.951 163.859L120.679 163.561C119.979 163.395 119.466 163.138 119.137 162.79C118.813 162.439 118.65 162 118.65 161.473C118.65 161.042 118.771 160.661 119.013 160.329C119.258 159.998 119.592 159.737 120.012 159.549C120.437 159.36 120.917 159.265 121.454 159.265C122.21 159.265 122.803 159.431 123.234 159.762C123.668 160.094 123.976 160.531 124.159 161.075ZM126.064 167.001V159.365H127.237V167.001H126.064ZM126.661 158.092C126.432 158.092 126.235 158.014 126.069 157.858C125.907 157.702 125.825 157.515 125.825 157.296C125.825 157.078 125.907 156.89 126.069 156.735C126.235 156.579 126.432 156.501 126.661 156.501C126.889 156.501 127.085 156.579 127.247 156.735C127.413 156.89 127.496 157.078 127.496 157.296C127.496 157.515 127.413 157.702 127.247 157.858C127.085 158.014 126.889 158.092 126.661 158.092ZM134.795 161.075L133.741 161.373C133.675 161.197 133.577 161.027 133.448 160.861C133.322 160.692 133.15 160.553 132.931 160.443C132.712 160.334 132.432 160.279 132.091 160.279C131.624 160.279 131.234 160.387 130.923 160.603C130.614 160.815 130.46 161.085 130.46 161.413C130.46 161.705 130.566 161.935 130.778 162.104C130.991 162.273 131.322 162.414 131.773 162.527L132.906 162.805C133.589 162.971 134.098 163.224 134.433 163.566C134.767 163.904 134.935 164.34 134.935 164.873C134.935 165.311 134.809 165.702 134.557 166.046C134.308 166.391 133.96 166.663 133.513 166.862C133.065 167.061 132.545 167.16 131.952 167.16C131.173 167.16 130.528 166.991 130.018 166.653C129.507 166.315 129.184 165.821 129.048 165.171L130.162 164.893C130.268 165.304 130.469 165.612 130.763 165.818C131.062 166.023 131.451 166.126 131.932 166.126C132.479 166.126 132.913 166.01 133.234 165.778C133.559 165.543 133.722 165.261 133.722 164.933C133.722 164.668 133.629 164.446 133.443 164.267C133.258 164.084 132.973 163.948 132.588 163.859L131.315 163.561C130.616 163.395 130.102 163.138 129.774 162.79C129.449 162.439 129.287 162 129.287 161.473C129.287 161.042 129.408 160.661 129.65 160.329C129.895 159.998 130.228 159.737 130.649 159.549C131.073 159.36 131.554 159.265 132.091 159.265C132.847 159.265 133.44 159.431 133.871 159.762C134.305 160.094 134.613 160.531 134.795 161.075ZM142.567 169.686C141.553 169.686 140.657 169.546 139.878 169.268C139.099 168.993 138.444 168.587 137.914 168.05C137.384 167.513 136.983 166.855 136.711 166.076C136.439 165.297 136.303 164.406 136.303 163.402C136.303 162.43 136.441 161.562 136.716 160.796C136.994 160.031 137.397 159.381 137.924 158.848C138.454 158.311 139.097 157.901 139.853 157.62C140.612 157.338 141.47 157.197 142.428 157.197C143.359 157.197 144.175 157.349 144.874 157.654C145.577 157.956 146.163 158.365 146.634 158.882C147.108 159.396 147.463 159.974 147.698 160.617C147.937 161.26 148.056 161.923 148.056 162.606C148.056 163.087 148.033 163.574 147.986 164.068C147.94 164.562 147.842 165.016 147.693 165.43C147.544 165.841 147.314 166.172 147.002 166.424C146.694 166.676 146.276 166.802 145.749 166.802C145.517 166.802 145.262 166.766 144.983 166.693C144.705 166.62 144.458 166.499 144.243 166.33C144.027 166.161 143.9 165.934 143.86 165.649H143.8C143.721 165.841 143.598 166.023 143.432 166.196C143.27 166.368 143.056 166.505 142.791 166.608C142.529 166.711 142.209 166.756 141.831 166.742C141.401 166.726 141.021 166.63 140.693 166.454C140.365 166.275 140.09 166.033 139.868 165.728C139.649 165.42 139.483 165.064 139.371 164.659C139.261 164.252 139.206 163.813 139.206 163.342C139.206 162.894 139.273 162.485 139.405 162.114C139.538 161.743 139.722 161.418 139.957 161.139C140.196 160.861 140.474 160.639 140.792 160.473C141.114 160.304 141.46 160.2 141.831 160.16C142.163 160.127 142.465 160.142 142.736 160.205C143.008 160.264 143.232 160.356 143.407 160.478C143.583 160.598 143.694 160.73 143.741 160.876H143.8V160.319H144.854V164.813C144.854 165.092 144.932 165.337 145.088 165.549C145.244 165.761 145.471 165.867 145.769 165.867C146.107 165.867 146.366 165.751 146.545 165.519C146.727 165.287 146.851 164.929 146.917 164.446C146.987 163.962 147.022 163.342 147.022 162.586C147.022 162.142 146.961 161.705 146.838 161.274C146.719 160.84 146.536 160.434 146.291 160.056C146.049 159.678 145.742 159.345 145.371 159.056C145 158.768 144.564 158.543 144.064 158.38C143.567 158.215 143.001 158.132 142.368 158.132C141.59 158.132 140.892 158.253 140.275 158.495C139.662 158.733 139.14 159.083 138.709 159.544C138.282 160.001 137.955 160.558 137.73 161.214C137.508 161.867 137.397 162.609 137.397 163.441C137.397 164.286 137.508 165.037 137.73 165.693C137.955 166.35 138.287 166.903 138.724 167.354C139.165 167.805 139.71 168.146 140.36 168.378C141.01 168.613 141.759 168.731 142.607 168.731C142.972 168.731 143.331 168.696 143.686 168.627C144.041 168.557 144.354 168.481 144.626 168.398C144.897 168.315 145.093 168.254 145.212 168.214L145.491 169.129C145.285 169.215 145.017 169.301 144.685 169.387C144.357 169.474 144.006 169.545 143.631 169.601C143.26 169.657 142.905 169.686 142.567 169.686ZM141.991 165.728C142.435 165.728 142.794 165.639 143.069 165.46C143.345 165.281 143.545 165.011 143.671 164.649C143.797 164.288 143.86 163.832 143.86 163.282C143.86 162.725 143.79 162.291 143.651 161.98C143.512 161.668 143.306 161.449 143.035 161.323C142.763 161.197 142.428 161.134 142.03 161.134C141.653 161.134 141.329 161.234 141.061 161.433C140.796 161.628 140.592 161.89 140.449 162.218C140.31 162.543 140.241 162.898 140.241 163.282C140.241 163.706 140.297 164.106 140.41 164.48C140.522 164.852 140.706 165.153 140.961 165.385C141.217 165.614 141.56 165.728 141.991 165.728ZM153.014 167.16C152.278 167.16 151.643 166.998 151.11 166.673C150.579 166.345 150.17 165.887 149.882 165.301C149.597 164.711 149.454 164.025 149.454 163.242C149.454 162.46 149.597 161.771 149.882 161.174C150.17 160.574 150.571 160.107 151.085 159.772C151.602 159.434 152.205 159.265 152.895 159.265C153.292 159.265 153.685 159.331 154.073 159.464C154.461 159.597 154.814 159.812 155.132 160.11C155.45 160.405 155.703 160.796 155.892 161.284C156.081 161.771 156.176 162.371 156.176 163.083V163.581H150.289V162.566H154.983C154.983 162.135 154.896 161.751 154.724 161.413C154.555 161.075 154.313 160.808 153.998 160.612C153.687 160.417 153.319 160.319 152.895 160.319C152.427 160.319 152.023 160.435 151.681 160.667C151.343 160.896 151.083 161.194 150.901 161.562C150.719 161.93 150.627 162.324 150.627 162.745V163.421C150.627 163.998 150.727 164.487 150.926 164.888C151.128 165.286 151.408 165.589 151.766 165.798C152.124 166.003 152.54 166.106 153.014 166.106C153.322 166.106 153.6 166.063 153.849 165.977C154.101 165.887 154.318 165.755 154.5 165.579C154.683 165.4 154.824 165.178 154.923 164.913L156.056 165.231C155.937 165.616 155.737 165.954 155.455 166.245C155.173 166.534 154.825 166.759 154.411 166.921C153.997 167.081 153.531 167.16 153.014 167.16ZM157.961 167.001V159.365H159.094V160.558H159.194C159.353 160.15 159.609 159.834 159.964 159.608C160.319 159.38 160.745 159.265 161.242 159.265C161.746 159.265 162.165 159.38 162.5 159.608C162.838 159.834 163.101 160.15 163.29 160.558H163.37C163.565 160.163 163.859 159.85 164.25 159.618C164.641 159.383 165.11 159.265 165.657 159.265C166.339 159.265 166.898 159.479 167.332 159.907C167.766 160.331 167.983 160.992 167.983 161.89V167.001H166.81V161.89C166.81 161.327 166.656 160.924 166.348 160.682C166.039 160.44 165.676 160.319 165.259 160.319C164.722 160.319 164.306 160.482 164.011 160.806C163.716 161.128 163.569 161.536 163.569 162.029V167.001H162.375V161.771C162.375 161.337 162.234 160.987 161.953 160.722C161.671 160.453 161.308 160.319 160.864 160.319C160.559 160.319 160.274 160.4 160.009 160.563C159.747 160.725 159.535 160.951 159.373 161.239C159.213 161.524 159.134 161.854 159.134 162.228V167.001H157.961ZM172.376 167.18C171.892 167.18 171.453 167.089 171.058 166.907C170.664 166.721 170.351 166.454 170.119 166.106C169.887 165.755 169.771 165.331 169.771 164.833C169.771 164.396 169.857 164.041 170.029 163.769C170.201 163.494 170.432 163.279 170.72 163.123C171.009 162.967 171.327 162.851 171.675 162.775C172.026 162.696 172.379 162.633 172.734 162.586C173.198 162.527 173.574 162.482 173.862 162.452C174.154 162.419 174.366 162.364 174.499 162.288C174.634 162.212 174.702 162.079 174.702 161.89V161.85C174.702 161.36 174.568 160.979 174.3 160.707C174.035 160.435 173.632 160.299 173.092 160.299C172.531 160.299 172.092 160.422 171.774 160.667C171.456 160.912 171.232 161.174 171.103 161.453L169.989 161.055C170.188 160.591 170.453 160.23 170.785 159.971C171.12 159.709 171.484 159.527 171.879 159.424C172.276 159.318 172.667 159.265 173.052 159.265C173.297 159.265 173.579 159.295 173.897 159.355C174.219 159.411 174.528 159.529 174.827 159.708C175.128 159.887 175.379 160.157 175.577 160.518C175.776 160.879 175.876 161.363 175.876 161.97V167.001H174.702V165.967H174.643C174.563 166.133 174.431 166.31 174.245 166.499C174.059 166.688 173.813 166.849 173.504 166.981C173.196 167.114 172.82 167.18 172.376 167.18ZM172.555 166.126C173.019 166.126 173.41 166.035 173.728 165.853C174.049 165.67 174.291 165.435 174.454 165.147C174.62 164.858 174.702 164.555 174.702 164.237V163.163C174.653 163.223 174.543 163.277 174.374 163.327C174.209 163.373 174.016 163.415 173.798 163.451C173.582 163.484 173.372 163.514 173.166 163.541C172.964 163.564 172.8 163.584 172.674 163.6C172.369 163.64 172.084 163.705 171.819 163.794C171.557 163.88 171.345 164.011 171.183 164.187C171.023 164.359 170.944 164.595 170.944 164.893C170.944 165.301 171.095 165.609 171.396 165.818C171.701 166.023 172.087 166.126 172.555 166.126ZM178.017 167.001V159.365H179.191V167.001H178.017ZM178.614 158.092C178.385 158.092 178.188 158.014 178.022 157.858C177.86 157.702 177.779 157.515 177.779 157.296C177.779 157.078 177.86 156.89 178.022 156.735C178.188 156.579 178.385 156.501 178.614 156.501C178.843 156.501 179.038 156.579 179.2 156.735C179.366 156.89 179.449 157.078 179.449 157.296C179.449 157.515 179.366 157.702 179.2 157.858C179.038 158.014 178.843 158.092 178.614 158.092ZM182.513 156.819V167.001H181.339V156.819H182.513ZM185.517 167.081C185.272 167.081 185.061 166.993 184.885 166.817C184.71 166.641 184.622 166.431 184.622 166.186C184.622 165.94 184.71 165.73 184.885 165.554C185.061 165.379 185.272 165.291 185.517 165.291C185.762 165.291 185.973 165.379 186.148 165.554C186.324 165.73 186.412 165.94 186.412 166.186C186.412 166.348 186.37 166.497 186.287 166.633C186.208 166.769 186.1 166.878 185.964 166.961C185.832 167.041 185.683 167.081 185.517 167.081ZM191.619 167.16C190.904 167.16 190.287 166.991 189.77 166.653C189.253 166.315 188.855 165.849 188.577 165.256C188.298 164.663 188.159 163.985 188.159 163.223C188.159 162.447 188.302 161.763 188.587 161.169C188.875 160.573 189.276 160.107 189.79 159.772C190.307 159.434 190.91 159.265 191.6 159.265C192.137 159.265 192.62 159.365 193.051 159.563C193.482 159.762 193.835 160.041 194.11 160.399C194.385 160.757 194.556 161.174 194.622 161.652H193.449C193.36 161.304 193.161 160.995 192.852 160.727C192.548 160.455 192.137 160.319 191.619 160.319C191.162 160.319 190.761 160.438 190.416 160.677C190.075 160.912 189.808 161.246 189.616 161.676C189.427 162.104 189.333 162.606 189.333 163.183C189.333 163.773 189.425 164.286 189.611 164.724C189.8 165.161 190.065 165.501 190.406 165.743C190.751 165.985 191.155 166.106 191.619 166.106C191.924 166.106 192.201 166.053 192.45 165.947C192.698 165.841 192.909 165.688 193.081 165.49C193.253 165.291 193.376 165.052 193.449 164.774H194.622C194.556 165.224 194.392 165.63 194.13 165.992C193.872 166.35 193.529 166.635 193.101 166.847C192.677 167.056 192.183 167.16 191.619 167.16ZM199.44 167.16C198.75 167.16 198.146 166.996 197.625 166.668C197.108 166.34 196.704 165.881 196.412 165.291C196.124 164.701 195.98 164.011 195.98 163.223C195.98 162.427 196.124 161.733 196.412 161.139C196.704 160.546 197.108 160.085 197.625 159.757C198.146 159.429 198.75 159.265 199.44 159.265C200.129 159.265 200.732 159.429 201.249 159.757C201.77 160.085 202.174 160.546 202.463 161.139C202.754 161.733 202.9 162.427 202.9 163.223C202.9 164.011 202.754 164.701 202.463 165.291C202.174 165.881 201.77 166.34 201.249 166.668C200.732 166.996 200.129 167.16 199.44 167.16ZM199.44 166.106C199.963 166.106 200.394 165.972 200.732 165.703C201.07 165.435 201.321 165.082 201.483 164.644C201.646 164.207 201.727 163.733 201.727 163.223C201.727 162.712 201.646 162.237 201.483 161.796C201.321 161.355 201.07 160.999 200.732 160.727C200.394 160.455 199.963 160.319 199.44 160.319C198.916 160.319 198.485 160.455 198.147 160.727C197.809 160.999 197.559 161.355 197.396 161.796C197.234 162.237 197.153 162.712 197.153 163.223C197.153 163.733 197.234 164.207 197.396 164.644C197.559 165.082 197.809 165.435 198.147 165.703C198.485 165.972 198.916 166.106 199.44 166.106ZM204.691 167.001V159.365H205.825V160.558H205.924C206.083 160.15 206.34 159.834 206.695 159.608C207.049 159.38 207.475 159.265 207.972 159.265C208.476 159.265 208.895 159.38 209.23 159.608C209.568 159.834 209.832 160.15 210.021 160.558H210.1C210.296 160.163 210.589 159.85 210.98 159.618C211.371 159.383 211.84 159.265 212.387 159.265C213.07 159.265 213.628 159.479 214.062 159.907C214.497 160.331 214.714 160.992 214.714 161.89V167.001H213.54V161.89C213.54 161.327 213.386 160.924 213.078 160.682C212.77 160.44 212.407 160.319 211.989 160.319C211.452 160.319 211.036 160.482 210.741 160.806C210.446 161.128 210.299 161.536 210.299 162.029V167.001H209.106V161.771C209.106 161.337 208.965 160.987 208.683 160.722C208.402 160.453 208.039 160.319 207.594 160.319C207.29 160.319 207.004 160.4 206.739 160.563C206.478 160.725 206.265 160.951 206.103 161.239C205.944 161.524 205.864 161.854 205.864 162.228V167.001H204.691Z" fill="#F6F6F7"/>
<path d="M29.1932 204.998C29.0838 204.663 28.9396 204.363 28.7607 204.098C28.585 203.829 28.3745 203.601 28.1293 203.412C27.8873 203.223 27.6122 203.079 27.304 202.979C26.9957 202.88 26.6577 202.83 26.2898 202.83C25.6866 202.83 25.138 202.986 24.6442 203.298C24.1503 203.609 23.7576 204.068 23.4659 204.675C23.1742 205.281 23.0284 206.025 23.0284 206.907C23.0284 207.789 23.1759 208.533 23.4709 209.139C23.7659 209.746 24.1652 210.205 24.669 210.516C25.1728 210.828 25.7396 210.984 26.3693 210.984C26.9527 210.984 27.4664 210.859 27.9105 210.611C28.358 210.359 28.706 210.004 28.9545 209.547C29.2064 209.086 29.3324 208.544 29.3324 207.921L29.7102 208.001H26.6477V206.907H30.5256V208.001C30.5256 208.839 30.3466 209.568 29.9886 210.188C29.634 210.808 29.1435 211.289 28.517 211.63C27.8939 211.968 27.178 212.137 26.3693 212.137C25.4678 212.137 24.6757 211.925 23.9929 211.501C23.3134 211.076 22.7831 210.473 22.402 209.691C22.0241 208.909 21.8352 207.981 21.8352 206.907C21.8352 206.101 21.9429 205.377 22.1584 204.734C22.3771 204.088 22.6854 203.538 23.0831 203.084C23.4808 202.63 23.9515 202.282 24.495 202.04C25.0386 201.798 25.6368 201.677 26.2898 201.677C26.8267 201.677 27.3272 201.758 27.7912 201.92C28.2585 202.079 28.6745 202.307 29.0391 202.601C29.407 202.893 29.7135 203.243 29.9588 203.651C30.2041 204.055 30.3731 204.504 30.4659 204.998H29.1932ZM32.9567 211.998V204.361H34.13V211.998H32.9567ZM33.5533 203.089C33.3246 203.089 33.1274 203.011 32.9616 202.855C32.7992 202.699 32.718 202.512 32.718 202.293C32.718 202.075 32.7992 201.887 32.9616 201.731C33.1274 201.576 33.3246 201.498 33.5533 201.498C33.782 201.498 33.9775 201.576 34.1399 201.731C34.3056 201.887 34.3885 202.075 34.3885 202.293C34.3885 202.512 34.3056 202.699 34.1399 202.855C33.9775 203.011 33.782 203.089 33.5533 203.089ZM37.4522 201.816V211.998H36.2789V201.816H37.4522ZM39.6012 211.998V204.361H40.7745V211.998H39.6012ZM40.1978 203.089C39.9691 203.089 39.7719 203.011 39.6062 202.855C39.4438 202.699 39.3626 202.512 39.3626 202.293C39.3626 202.075 39.4438 201.887 39.6062 201.731C39.7719 201.576 39.9691 201.498 40.1978 201.498C40.4265 201.498 40.622 201.576 40.7844 201.731C40.9502 201.887 41.033 202.075 41.033 202.293C41.033 202.512 40.9502 202.699 40.7844 202.855C40.622 203.011 40.4265 203.089 40.1978 203.089ZM48.3326 206.072L47.2786 206.37C47.2123 206.194 47.1145 206.024 46.9853 205.858C46.8593 205.689 46.687 205.55 46.4682 205.44C46.2495 205.331 45.9694 205.276 45.628 205.276C45.1607 205.276 44.7712 205.384 44.4597 205.599C44.1515 205.811 43.9973 206.082 43.9973 206.41C43.9973 206.701 44.1034 206.932 44.3155 207.101C44.5276 207.27 44.8591 207.411 45.3098 207.523L46.4434 207.802C47.1261 207.967 47.6349 208.221 47.9696 208.562C48.3044 208.901 48.4718 209.336 48.4718 209.87C48.4718 210.307 48.3458 210.699 48.0939 211.043C47.8453 211.388 47.4973 211.66 47.0499 211.859C46.6025 212.057 46.0821 212.157 45.4888 212.157C44.7099 212.157 44.0653 211.988 43.5549 211.65C43.0444 211.312 42.7213 210.818 42.5854 210.168L43.699 209.89C43.8051 210.301 44.0056 210.609 44.3006 210.815C44.5989 211.02 44.9883 211.123 45.4689 211.123C46.0158 211.123 46.45 211.007 46.7715 210.775C47.0963 210.539 47.2587 210.258 47.2587 209.93C47.2587 209.664 47.1659 209.442 46.9803 209.263C46.7947 209.081 46.5096 208.945 46.1252 208.856L44.8525 208.557C44.1531 208.392 43.6394 208.135 43.3113 207.787C42.9864 207.436 42.824 206.996 42.824 206.469C42.824 206.039 42.945 205.657 43.187 205.326C43.4322 204.994 43.7653 204.734 44.1863 204.545C44.6105 204.356 45.0911 204.262 45.628 204.262C46.3837 204.262 46.977 204.428 47.4078 204.759C47.842 205.091 48.1503 205.528 48.3326 206.072ZM50.2379 211.998V204.361H51.4112V211.998H50.2379ZM50.8345 203.089C50.6058 203.089 50.4086 203.011 50.2429 202.855C50.0805 202.699 49.9993 202.512 49.9993 202.293C49.9993 202.075 50.0805 201.887 50.2429 201.731C50.4086 201.576 50.6058 201.498 50.8345 201.498C51.0632 201.498 51.2588 201.576 51.4212 201.731C51.5869 201.887 51.6697 202.075 51.6697 202.293C51.6697 202.512 51.5869 202.699 51.4212 202.855C51.2588 203.011 51.0632 203.089 50.8345 203.089ZM58.9693 206.072L57.9153 206.37C57.849 206.194 57.7512 206.024 57.622 205.858C57.496 205.689 57.3237 205.55 57.1049 205.44C56.8862 205.331 56.6061 205.276 56.2647 205.276C55.7974 205.276 55.408 205.384 55.0964 205.599C54.7882 205.811 54.6341 206.082 54.6341 206.41C54.6341 206.701 54.7401 206.932 54.9522 207.101C55.1644 207.27 55.4958 207.411 55.9466 207.523L57.0801 207.802C57.7628 207.967 58.2716 208.221 58.6064 208.562C58.9411 208.901 59.1085 209.336 59.1085 209.87C59.1085 210.307 58.9825 210.699 58.7306 211.043C58.4821 211.388 58.1341 211.66 57.6866 211.859C57.2392 212.057 56.7188 212.157 56.1255 212.157C55.3467 212.157 54.702 211.988 54.1916 211.65C53.6812 211.312 53.358 210.818 53.2221 210.168L54.3358 209.89C54.4418 210.301 54.6423 210.609 54.9373 210.815C55.2356 211.02 55.6251 211.123 56.1056 211.123C56.6525 211.123 57.0867 211.007 57.4082 210.775C57.733 210.539 57.8954 210.258 57.8954 209.93C57.8954 209.664 57.8026 209.442 57.617 209.263C57.4314 209.081 57.1464 208.945 56.7619 208.856L55.4892 208.557C54.7898 208.392 54.2761 208.135 53.948 207.787C53.6232 207.436 53.4608 206.996 53.4608 206.469C53.4608 206.039 53.5817 205.657 53.8237 205.326C54.069 204.994 54.402 204.734 54.823 204.545C55.2472 204.356 55.7278 204.262 56.2647 204.262C57.0204 204.262 57.6137 204.428 58.0446 204.759C58.4788 205.091 58.787 205.528 58.9693 206.072Z" fill="#F6F6F7"/>
<line x1="21" y1="88.4998" x2="397" y2="88.4998" stroke="#282D45"/>
<path d="M21.6761 66.911V65.8172H29.3125V66.911H26.1108V75.999H24.8778V66.911H21.6761ZM33.0511 76.1581C32.3617 76.1581 31.7569 75.9941 31.2365 75.6659C30.7195 75.3378 30.3151 74.8788 30.0234 74.2888C29.7351 73.6988 29.5909 73.0094 29.5909 72.2206C29.5909 71.4252 29.7351 70.7308 30.0234 70.1375C30.3151 69.5442 30.7195 69.0835 31.2365 68.7554C31.7569 68.4273 32.3617 68.2632 33.0511 68.2632C33.7405 68.2632 34.3438 68.4273 34.8608 68.7554C35.3812 69.0835 35.7855 69.5442 36.0739 70.1375C36.3655 70.7308 36.5114 71.4252 36.5114 72.2206C36.5114 73.0094 36.3655 73.6988 36.0739 74.2888C35.7855 74.8788 35.3812 75.3378 34.8608 75.6659C34.3438 75.9941 33.7405 76.1581 33.0511 76.1581ZM33.0511 75.1041C33.5748 75.1041 34.0057 74.9699 34.3438 74.7014C34.6818 74.433 34.9321 74.08 35.0945 73.6425C35.2569 73.205 35.3381 72.731 35.3381 72.2206C35.3381 71.7102 35.2569 71.2346 35.0945 70.7938C34.9321 70.353 34.6818 69.9967 34.3438 69.7249C34.0057 69.4531 33.5748 69.3172 33.0511 69.3172C32.5275 69.3172 32.0966 69.4531 31.7585 69.7249C31.4205 69.9967 31.1702 70.353 31.0078 70.7938C30.8454 71.2346 30.7642 71.7102 30.7642 72.2206C30.7642 72.731 30.8454 73.205 31.0078 73.6425C31.1702 74.08 31.4205 74.433 31.7585 74.7014C32.0966 74.9699 32.5275 75.1041 33.0511 75.1041Z" fill="#8F9BB7"/>
<rect x="55" y="59" width="85" height="24" rx="12" fill="#282D45"/>
<path d="M70.8295 68.4545C70.7784 68.0227 70.571 67.6875 70.2074 67.4489C69.8438 67.2102 69.3977 67.0909 68.8693 67.0909C68.483 67.0909 68.1449 67.1534 67.8551 67.2784C67.5682 67.4034 67.3438 67.5753 67.1818 67.794C67.0227 68.0128 66.9432 68.2614 66.9432 68.5398C66.9432 68.7727 66.9986 68.973 67.1094 69.1406C67.223 69.3054 67.3679 69.4432 67.544 69.554C67.7202 69.6619 67.9048 69.7514 68.098 69.8224C68.2912 69.8906 68.4688 69.946 68.6307 69.9886L69.517 70.2273C69.7443 70.2869 69.9972 70.3693 70.2756 70.4744C70.5568 70.5795 70.8253 70.723 71.081 70.9048C71.3395 71.0838 71.5526 71.3139 71.7202 71.5952C71.8878 71.8764 71.9716 72.2216 71.9716 72.6307C71.9716 73.1023 71.848 73.5284 71.6009 73.9091C71.3565 74.2898 70.9986 74.5923 70.527 74.8168C70.0582 75.0412 69.4886 75.1534 68.8182 75.1534C68.1932 75.1534 67.652 75.0526 67.1946 74.8509C66.7401 74.6491 66.3821 74.3679 66.1207 74.0071C65.8622 73.6463 65.7159 73.2273 65.6818 72.75H66.7727C66.8011 73.0795 66.9119 73.3523 67.1051 73.5682C67.3011 73.7812 67.5483 73.9403 67.8466 74.0455C68.1477 74.1477 68.4716 74.1989 68.8182 74.1989C69.2216 74.1989 69.5838 74.1335 69.9048 74.0028C70.2259 73.8693 70.4801 73.6847 70.6676 73.4489C70.8551 73.2102 70.9489 72.9318 70.9489 72.6136C70.9489 72.3239 70.8679 72.0881 70.706 71.9062C70.544 71.7244 70.331 71.5767 70.0668 71.4631C69.8026 71.3494 69.517 71.25 69.2102 71.1648L68.1364 70.858C67.4545 70.6619 66.9148 70.3821 66.517 70.0185C66.1193 69.6548 65.9205 69.179 65.9205 68.5909C65.9205 68.1023 66.0526 67.6761 66.3168 67.3125C66.5838 66.946 66.9418 66.6619 67.3906 66.4602C67.8423 66.2557 68.3466 66.1534 68.9034 66.1534C69.4659 66.1534 69.9659 66.2543 70.4034 66.456C70.8409 66.6548 71.1875 66.9276 71.4432 67.2741C71.7017 67.6207 71.8381 68.0142 71.8523 68.4545H70.8295ZM75.4989 75.1534C75.0842 75.1534 74.7077 75.0753 74.3697 74.919C74.0316 74.7599 73.7631 74.5312 73.5643 74.233C73.3654 73.9318 73.266 73.5682 73.266 73.142C73.266 72.767 73.3398 72.4631 73.4876 72.2301C73.6353 71.9943 73.8327 71.8097 74.0799 71.6761C74.3271 71.5426 74.5998 71.4432 74.8981 71.3778C75.1992 71.3097 75.5018 71.2557 75.8058 71.2159C76.2035 71.1648 76.5259 71.1264 76.7731 71.1009C77.0231 71.0724 77.2049 71.0256 77.3185 70.9602C77.435 70.8949 77.4933 70.7812 77.4933 70.6193V70.5852C77.4933 70.1648 77.3782 69.8381 77.1481 69.6051C76.9208 69.3722 76.5756 69.2557 76.1126 69.2557C75.6325 69.2557 75.256 69.3608 74.9833 69.571C74.7106 69.7812 74.5188 70.0057 74.408 70.2443L73.4535 69.9034C73.6239 69.5057 73.8512 69.196 74.1353 68.9744C74.4222 68.75 74.7347 68.5937 75.0728 68.5057C75.4137 68.4148 75.7489 68.3693 76.0785 68.3693C76.2887 68.3693 76.5302 68.3949 76.8029 68.446C77.0785 68.4943 77.3441 68.5952 77.5998 68.7486C77.8583 68.902 78.0728 69.1335 78.2433 69.4432C78.4137 69.7528 78.4989 70.1676 78.4989 70.6875V75H77.4933V74.1136H77.4421C77.3739 74.2557 77.2603 74.4077 77.1012 74.5696C76.9421 74.7315 76.7305 74.8693 76.4663 74.983C76.2021 75.0966 75.8796 75.1534 75.4989 75.1534ZM75.6523 74.25C76.0501 74.25 76.3853 74.1719 76.658 74.0156C76.9336 73.8594 77.141 73.6577 77.2802 73.4105C77.4222 73.1634 77.4933 72.9034 77.4933 72.6307V71.7102C77.4506 71.7614 77.3569 71.8082 77.212 71.8509C77.07 71.8906 76.9052 71.9261 76.7177 71.9574C76.533 71.9858 76.3526 72.0114 76.1765 72.0341C76.0032 72.054 75.8626 72.071 75.7546 72.0852C75.4933 72.1193 75.2489 72.1747 75.0217 72.2514C74.7972 72.3253 74.6154 72.4375 74.4762 72.5881C74.3398 72.7358 74.2717 72.9375 74.2717 73.1932C74.2717 73.5426 74.4009 73.8068 74.6594 73.9858C74.9208 74.1619 75.2518 74.25 75.6523 74.25ZM80.3345 68.4545H81.3402V75.4773C81.3402 75.8807 81.2706 76.2301 81.1314 76.5256C80.995 76.821 80.7876 77.0497 80.5092 77.2116C80.2337 77.3736 79.8857 77.4545 79.4652 77.4545C79.4311 77.4545 79.397 77.4545 79.3629 77.4545C79.3288 77.4545 79.2947 77.4545 79.2607 77.4545V76.517C79.2947 76.517 79.326 76.517 79.3544 76.517C79.3828 76.517 79.4141 76.517 79.4482 76.517C79.755 76.517 79.9794 76.4261 80.1214 76.2443C80.2635 76.0653 80.3345 75.8097 80.3345 75.4773V68.4545ZM80.8288 67.3636C80.6328 67.3636 80.4638 67.2969 80.3217 67.1634C80.1825 67.0298 80.1129 66.8693 80.1129 66.6818C80.1129 66.4943 80.1825 66.3338 80.3217 66.2003C80.4638 66.0668 80.6328 66 80.8288 66C81.0249 66 81.1925 66.0668 81.3317 66.2003C81.4737 66.3338 81.5447 66.4943 81.5447 66.6818C81.5447 66.8693 81.4737 67.0298 81.3317 67.1634C81.1925 67.2969 81.0249 67.3636 80.8288 67.3636ZM83.1822 75V68.4545H84.1879V75H83.1822ZM83.6935 67.3636C83.4975 67.3636 83.3285 67.2969 83.1864 67.1634C83.0472 67.0298 82.9776 66.8693 82.9776 66.6818C82.9776 66.4943 83.0472 66.3338 83.1864 66.2003C83.3285 66.0668 83.4975 66 83.6935 66C83.8896 66 84.0572 66.0668 84.1964 66.2003C84.3384 66.3338 84.4094 66.4943 84.4094 66.6818C84.4094 66.8693 84.3384 67.0298 84.1964 67.1634C84.0572 67.2969 83.8896 67.3636 83.6935 67.3636ZM86.1662 75V66.2727H87.1719V69.4943H87.2571C87.331 69.3807 87.4332 69.2358 87.5639 69.0597C87.6974 68.8807 87.8878 68.7216 88.1349 68.5824C88.3849 68.4403 88.723 68.3693 89.1491 68.3693C89.7003 68.3693 90.1861 68.5071 90.6065 68.7827C91.027 69.0582 91.3551 69.4489 91.5909 69.9545C91.8267 70.4602 91.9446 71.0568 91.9446 71.7443C91.9446 72.4375 91.8267 73.0384 91.5909 73.5469C91.3551 74.0526 91.0284 74.4446 90.6108 74.723C90.1932 74.9986 89.7116 75.1364 89.1662 75.1364C88.7457 75.1364 88.4091 75.0668 88.1562 74.9276C87.9034 74.7855 87.7088 74.625 87.5724 74.446C87.4361 74.2642 87.331 74.1136 87.2571 73.9943H87.1378V75H86.1662ZM87.1548 71.7273C87.1548 72.2216 87.2273 72.6577 87.3722 73.0355C87.517 73.4105 87.7287 73.7045 88.0071 73.9176C88.2855 74.1278 88.6264 74.233 89.0298 74.233C89.4503 74.233 89.8011 74.1222 90.0824 73.9006C90.3665 73.6761 90.5795 73.375 90.7216 72.9972C90.8665 72.6165 90.9389 72.1932 90.9389 71.7273C90.9389 71.267 90.8679 70.8523 90.7259 70.483C90.5866 70.1108 90.375 69.8168 90.0909 69.6009C89.8097 69.3821 89.456 69.2727 89.0298 69.2727C88.6207 69.2727 88.277 69.3764 87.9986 69.5838C87.7202 69.7884 87.5099 70.0753 87.3679 70.4446C87.2259 70.8111 87.1548 71.2386 87.1548 71.7273ZM96.9943 75V66.2727H98.0511V70.1591H102.705V66.2727H103.761V75H102.705V71.0966H98.0511V75H96.9943ZM106.474 75.0682C106.263 75.0682 106.083 74.9929 105.933 74.8423C105.782 74.6918 105.707 74.5114 105.707 74.3011C105.707 74.0909 105.782 73.9105 105.933 73.7599C106.083 73.6094 106.263 73.5341 106.474 73.5341C106.684 73.5341 106.864 73.6094 107.015 73.7599C107.165 73.9105 107.241 74.0909 107.241 74.3011C107.241 74.4403 107.205 74.5682 107.134 74.6847C107.066 74.8011 106.974 74.8949 106.857 74.9659C106.744 75.0341 106.616 75.0682 106.474 75.0682Z" fill="#F6F6F7"/>
<path d="M126 67L118 75" stroke="#8F9BB7" stroke-width="1.5" stroke-linecap="round" stroke-linejoin="round"/>
<path d="M118 67L126 75" stroke="#8F9BB7" stroke-width="1.5" stroke-linecap="round" stroke-linejoin="round"/>
<path d="M344.426 68.999H343.193C343.12 68.6444 342.993 68.3328 342.81 68.0644C342.631 67.7959 342.413 67.5705 342.154 67.3882C341.899 67.2026 341.616 67.0634 341.304 66.9706C340.992 66.8778 340.668 66.8314 340.33 66.8314C339.713 66.8314 339.155 66.9872 338.654 67.2987C338.157 67.6103 337.761 68.0693 337.466 68.6759C337.174 69.2824 337.028 70.0265 337.028 70.9081C337.028 71.7897 337.174 72.5338 337.466 73.1404C337.761 73.7469 338.157 74.2059 338.654 74.5175C339.155 74.829 339.713 74.9848 340.33 74.9848C340.668 74.9848 340.992 74.9384 341.304 74.8456C341.616 74.7528 341.899 74.6153 342.154 74.433C342.413 74.2474 342.631 74.0203 342.81 73.7519C342.993 73.4801 343.12 73.1685 343.193 72.8172H344.426C344.333 73.3376 344.164 73.8032 343.919 74.2142C343.674 74.6252 343.369 74.9749 343.004 75.2632C342.64 75.5483 342.23 75.7654 341.776 75.9145C341.326 76.0637 340.843 76.1382 340.33 76.1382C339.461 76.1382 338.689 75.9261 338.013 75.5019C337.337 75.0776 336.805 74.4744 336.417 73.6922C336.029 72.91 335.835 71.982 335.835 70.9081C335.835 69.8343 336.029 68.9062 336.417 68.124C336.805 67.3418 337.337 66.7386 338.013 66.3144C338.689 65.8901 339.461 65.678 340.33 65.678C340.843 65.678 341.326 65.7526 341.776 65.9017C342.23 66.0509 342.64 66.2696 343.004 66.558C343.369 66.843 343.674 67.191 343.919 67.602C344.164 68.0097 344.333 68.4753 344.426 68.999ZM354.612 68.999H353.379C353.306 68.6444 353.178 68.3328 352.996 68.0644C352.817 67.7959 352.598 67.5705 352.34 67.3882C352.084 67.2026 351.801 67.0634 351.49 66.9706C351.178 66.8778 350.853 66.8314 350.515 66.8314C349.899 66.8314 349.34 66.9872 348.84 67.2987C348.343 67.6103 347.946 68.0693 347.651 68.6759C347.36 69.2824 347.214 70.0265 347.214 70.9081C347.214 71.7897 347.36 72.5338 347.651 73.1404C347.946 73.7469 348.343 74.2059 348.84 74.5175C349.34 74.829 349.899 74.9848 350.515 74.9848C350.853 74.9848 351.178 74.9384 351.49 74.8456C351.801 74.7528 352.084 74.6153 352.34 74.433C352.598 74.2474 352.817 74.0203 352.996 73.7519C353.178 73.4801 353.306 73.1685 353.379 72.8172H354.612C354.519 73.3376 354.35 73.8032 354.105 74.2142C353.859 74.6252 353.554 74.9749 353.19 75.2632C352.825 75.5483 352.416 75.7654 351.962 75.9145C351.511 76.0637 351.029 76.1382 350.515 76.1382C349.647 76.1382 348.874 75.9261 348.198 75.5019C347.522 75.0776 346.99 74.4744 346.602 73.6922C346.215 72.91 346.021 71.982 346.021 70.9081C346.021 69.8343 346.215 68.9062 346.602 68.124C346.99 67.3418 347.522 66.7386 348.198 66.3144C348.874 65.8901 349.647 65.678 350.515 65.678C351.029 65.678 351.511 65.7526 351.962 65.9017C352.416 66.0509 352.825 66.2696 353.19 66.558C353.554 66.843 353.859 67.191 354.105 67.602C354.35 68.0097 354.519 68.4753 354.612 68.999Z" fill="#8F9BB7"/>
<path d="M368.233 75.999V65.8172H371.793C372.502 65.8172 373.087 65.9398 373.548 66.1851C374.008 66.4271 374.351 66.7535 374.577 67.1645C374.802 67.5722 374.915 68.0246 374.915 68.5218C374.915 68.9593 374.837 69.3205 374.681 69.6056C374.529 69.8906 374.326 70.116 374.075 70.2817C373.826 70.4474 373.556 70.57 373.264 70.6496V70.749C373.576 70.7689 373.889 70.8783 374.204 71.0771C374.519 71.276 374.782 71.561 374.994 71.9323C375.206 72.3035 375.312 72.7575 375.312 73.2945C375.312 73.8049 375.196 74.2639 374.964 74.6716C374.732 75.0793 374.366 75.4024 373.866 75.6411C373.365 75.8797 372.714 75.999 371.912 75.999H368.233ZM369.466 74.9053H371.912C372.717 74.9053 373.289 74.7495 373.627 74.4379C373.969 74.1231 374.139 73.7419 374.139 73.2945C374.139 72.9498 374.051 72.6316 373.876 72.3399C373.7 72.045 373.45 71.8096 373.125 71.634C372.8 71.455 372.416 71.3655 371.972 71.3655H369.466V74.9053ZM369.466 70.2916H371.753C372.124 70.2916 372.459 70.2187 372.757 70.0729C373.059 69.9271 373.297 69.7216 373.473 69.4564C373.652 69.1913 373.741 68.8797 373.741 68.5218C373.741 68.0743 373.586 67.6948 373.274 67.3833C372.963 67.0684 372.469 66.911 371.793 66.911H369.466V70.2916ZM385.532 68.999H384.299C384.226 68.6444 384.098 68.3328 383.916 68.0644C383.737 67.7959 383.518 67.5705 383.26 67.3882C383.004 67.2026 382.721 67.0634 382.409 66.9706C382.098 66.8778 381.773 66.8314 381.435 66.8314C380.819 66.8314 380.26 66.9872 379.76 67.2987C379.262 67.6103 378.866 68.0693 378.571 68.6759C378.28 69.2824 378.134 70.0265 378.134 70.9081C378.134 71.7897 378.28 72.5338 378.571 73.1404C378.866 73.7469 379.262 74.2059 379.76 74.5175C380.26 74.829 380.819 74.9848 381.435 74.9848C381.773 74.9848 382.098 74.9384 382.409 74.8456C382.721 74.7528 383.004 74.6153 383.26 74.433C383.518 74.2474 383.737 74.0203 383.916 73.7519C384.098 73.4801 384.226 73.1685 384.299 72.8172H385.532C385.439 73.3376 385.27 73.8032 385.025 74.2142C384.779 74.6252 384.474 74.9749 384.11 75.2632C383.745 75.5483 383.336 75.7654 382.882 75.9145C382.431 76.0637 381.949 76.1382 381.435 76.1382C380.567 76.1382 379.794 75.9261 379.118 75.5019C378.442 75.0776 377.91 74.4744 377.522 73.6922C377.135 72.91 376.941 71.982 376.941 70.9081C376.941 69.8343 377.135 68.9062 377.522 68.124C377.91 67.3418 378.442 66.7386 379.118 66.3144C379.794 65.8901 380.567 65.678 381.435 65.678C381.949 65.678 382.431 65.7526 382.882 65.9017C383.336 66.0509 383.745 66.2696 384.11 66.558C384.474 66.843 384.779 67.191 385.025 67.602C385.27 68.0097 385.439 68.4753 385.532 68.999ZM395.717 68.999H394.484C394.411 68.6444 394.284 68.3328 394.101 68.0644C393.922 67.7959 393.704 67.5705 393.445 67.3882C393.19 67.2026 392.907 67.0634 392.595 66.9706C392.283 66.8778 391.959 66.8314 391.621 66.8314C391.004 66.8314 390.446 66.9872 389.945 67.2987C389.448 67.6103 389.052 68.0693 388.757 68.6759C388.465 69.2824 388.319 70.0265 388.319 70.9081C388.319 71.7897 388.465 72.5338 388.757 73.1404C389.052 73.7469 389.448 74.2059 389.945 74.5175C390.446 74.829 391.004 74.9848 391.621 74.9848C391.959 74.9848 392.283 74.9384 392.595 74.8456C392.907 74.7528 393.19 74.6153 393.445 74.433C393.704 74.2474 393.922 74.0203 394.101 73.7519C394.284 73.4801 394.411 73.1685 394.484 72.8172H395.717C395.624 73.3376 395.455 73.8032 395.21 74.2142C394.965 74.6252 394.66 74.9749 394.295 75.2632C393.931 75.5483 393.521 75.7654 393.067 75.9145C392.617 76.0637 392.134 76.1382 391.621 76.1382C390.752 76.1382 389.98 75.9261 389.304 75.5019C388.628 75.0776 388.096 74.4744 387.708 73.6922C387.32 72.91 387.126 71.982 387.126 70.9081C387.126 69.8343 387.32 68.9062 387.708 68.124C388.096 67.3418 388.628 66.7386 389.304 66.3144C389.98 65.8901 390.752 65.678 391.621 65.678C392.134 65.678 392.617 65.7526 393.067 65.9017C393.521 66.0509 393.931 66.2696 394.295 66.558C394.66 66.843 394.965 67.191 395.21 67.602C395.455 68.0097 395.624 68.4753 395.717 68.999Z" fill="#8F9BB7"/>
</g>
</svg>
