<svg width="43" height="30" viewBox="0 0 43 30" fill="none" xmlns="http://www.w3.org/2000/svg">
<g clip-path="url(#clip0_222_8)">
<path d="M2.2926 0.358316C2.82594 0.133316 3.3926 -0.00835088 3.9676 -1.75464e-05C15.6343 -1.75464e-05 27.3009 -1.75464e-05 38.9676 -1.75464e-05C39.5426 -0.00835088 40.1176 0.133316 40.6426 0.366649C37.8009 3.23332 34.9176 6.06665 32.0593 8.92498C29.6343 11.3333 27.2093 13.75 24.7926 16.1583C24.4926 16.4416 24.2176 16.7583 23.8926 17.0166C22.9343 17.8666 21.5176 18.1416 20.3009 17.7333C19.6926 17.55 19.1676 17.175 18.7176 16.7416C13.3593 11.4083 8.00094 6.07498 2.63427 0.741649C2.5176 0.616649 2.3926 0.499982 2.2926 0.358316Z" fill="#B756FE"/>
<path d="M0.500944 2.14996C4.82594 6.42496 9.13428 10.7166 13.4509 15C9.13428 19.2833 4.82594 23.575 0.500944 27.85C0.300944 27.3916 0.167611 26.9 0.134277 26.3916V3.6083C0.167611 3.09996 0.300944 2.6083 0.500944 2.14996Z" fill="#F6F6F7"/>
<path d="M29.4843 15C33.8009 10.7166 38.1009 6.41663 42.4343 2.14996C42.6343 2.6083 42.7759 3.09996 42.8009 3.6083V26.4C42.7676 26.9 42.6343 27.4 42.4343 27.8583C38.1093 23.575 33.8009 19.2833 29.4843 15Z" fill="#F6F6F7"/>
<path d="M5.27594 26.6417C8.5926 23.35 11.9009 20.0583 15.2176 16.7667C15.8593 17.4 16.4843 18.0417 17.1259 18.6667C18.0593 19.575 19.2843 20.175 20.5676 20.3583C22.3926 20.6333 24.3259 20.05 25.6759 18.7917C26.3759 18.1333 27.0343 17.4417 27.7176 16.7667C30.3759 19.4083 33.0343 22.05 35.6926 24.6917C37.3426 26.3417 39.0176 27.9667 40.6509 29.6333C40.1259 29.8667 39.5509 30.0083 38.9759 30C27.3093 30 15.6426 30 3.97594 30C3.3926 30.0083 2.82594 29.8667 2.2926 29.6333C3.25927 28.6167 4.28427 27.6417 5.27594 26.6417Z" fill="#F6F6F7"/>
</g>
<defs>
<clipPath id="clip0_222_8">
<rect width="42.6667" height="30" fill="white" transform="translate(0.134277)"/>
</clipPath>
</defs>
</svg>
