<svg width="33" height="30" viewBox="0 0 33 30" fill="none" xmlns="http://www.w3.org/2000/svg">
<path d="M10.4301 5.41219C11.0691 5.42722 11.6479 4.85594 11.6328 4.217C11.6328 3.18718 11.6404 2.14985 11.6328 1.12003C11.6028 0.435993 10.9037 -0.120259 10.2272 0.0150455C9.67093 0.0977316 9.21992 0.623915 9.23495 1.1952C9.23495 2.20247 9.23495 3.20973 9.23495 4.20948C9.2124 4.85594 9.7912 5.42722 10.4301 5.41219Z" fill="#F6F6F7"/>
<path d="M22.4572 5.41219C23.0961 5.42722 23.6674 4.85594 23.6599 4.217C23.6599 3.18718 23.6674 2.14985 23.6599 1.12003C23.6373 0.435993 22.9307 -0.120259 22.2542 0.0150455C21.698 0.105248 21.247 0.631432 21.262 1.1952C21.262 2.20247 21.262 3.20973 21.262 4.20948C21.2394 4.85594 21.8182 5.42722 22.4572 5.41219Z" fill="#F6F6F7"/>
<path d="M32.0788 10.8243H0.808472C0.808472 14.7858 0.808472 19.0178 0.808472 23.0093V26.5873C0.808472 28.4665 2.33441 29.9925 4.21363 29.9925H7.61879C13.9405 29.9925 20.2698 29.9925 26.5915 29.9925C26.6516 29.9925 26.7118 29.9925 26.7794 29.9925H28.6812C30.5604 29.9925 32.0863 28.4665 32.0863 26.5873V23.0093H32.0788C32.0788 19.0178 32.0788 14.7933 32.0788 10.8243ZM22.0212 19.0178C21.9686 19.4462 21.6454 19.7619 21.2996 19.9799L19.5331 21.2503C19.7736 21.9945 20.0142 22.7311 20.2547 23.4753C20.4051 23.8662 20.3975 24.3322 20.142 24.678C19.7962 25.2042 19.0144 25.3545 18.5033 25.0012C17.8117 24.5126 17.1352 24.009 16.4437 23.5129C15.8122 23.9714 15.1883 24.4224 14.5569 24.881C14.3389 25.0463 14.0909 25.1816 13.8127 25.1967C13.3542 25.2343 12.8957 24.9862 12.6702 24.5878C12.4973 24.2871 12.4747 23.9188 12.5875 23.5956C12.8355 22.8213 13.0911 22.0471 13.3392 21.2728C12.6702 20.7767 11.9936 20.2956 11.3171 19.7995C10.8887 19.4913 10.7158 18.8825 10.9187 18.4014C11.0841 17.9579 11.5351 17.6497 12.0087 17.6422C12.8431 17.6347 13.6849 17.6422 14.5268 17.6422C14.7899 16.8454 15.038 16.0486 15.3011 15.2593C15.4665 14.7632 15.9926 14.4174 16.5113 14.4625C16.9774 14.4851 17.4133 14.8158 17.5637 15.2593C17.8268 16.0486 18.0823 16.8454 18.3379 17.6347C18.3379 17.6422 18.3454 17.6422 18.3454 17.6422C19.1948 17.6497 20.0518 17.6347 20.9012 17.6497C21.6003 17.6572 22.149 18.3488 22.0212 19.0178Z" fill="#F6F6F7"/>
<path d="M26.7418 2.41291C26.1179 2.39036 25.4865 2.42795 24.8626 2.41291C24.8551 3.10447 24.8852 3.80354 24.8476 4.4951C24.7348 5.67525 23.6449 6.64493 22.4647 6.62238C21.2846 6.65245 20.1871 5.67525 20.0743 4.50261C20.0367 3.81106 20.0668 3.11199 20.0593 2.42043H12.8431C12.8355 3.11199 12.8656 3.81106 12.828 4.50261C12.7153 5.68277 11.6253 6.65245 10.4452 6.6299C9.26501 6.65997 8.16754 5.69029 8.05479 4.51013C8.0172 3.81858 8.04727 3.1195 8.03975 2.42043C7.41585 2.42043 6.78443 2.42043 6.16052 2.42043H4.2813C2.34945 2.41291 0.800964 3.9614 0.800964 5.87069V8.1859C0.800964 8.66698 0.823515 9.14807 0.808481 9.62163H32.0788C32.0638 9.14807 32.0864 8.66698 32.0864 8.1859V5.87069C32.0864 3.9614 30.5379 2.4054 28.6211 2.4054H26.7418V2.41291Z" fill="#32CAFD"/>
</svg>
