<svg width="35" height="45" viewBox="0 0 35 45" fill="none" xmlns="http://www.w3.org/2000/svg">
<g clip-path="url(#clip0_195_345)">
<path d="M1.64246 0H25.6805C26.3309 0.0703125 26.8759 0.650391 26.8671 1.30957C26.8759 12.6211 26.8671 23.9326 26.8671 35.2441C26.8583 35.6045 26.911 36 26.7352 36.334C26.5155 36.8174 25.9882 37.1162 25.4608 37.0898C17.577 37.0898 9.69324 37.0898 1.80945 37.0898C1.10632 37.0986 0.4823 36.4746 0.499878 35.7803C0.499878 24.4688 0.499878 13.1572 0.499878 1.8457C0.508667 1.47656 0.455933 1.08984 0.631714 0.74707C0.816284 0.351563 1.22058 0.0878906 1.64246 0ZM5.53601 6.70606C4.79773 6.8291 4.27918 7.65527 4.51648 8.37598C4.66589 8.9209 5.21082 9.3252 5.77332 9.31641C8.41004 9.31641 11.0468 9.31641 13.6835 9.31641C14.3866 9.33399 15.0106 8.70117 15.0018 7.99805C15.0194 7.29492 14.3866 6.66211 13.6835 6.67969C11.0731 6.67969 8.47156 6.67969 5.86121 6.67969C5.75574 6.67969 5.64148 6.68848 5.53601 6.70606ZM5.52722 11.9795C4.85925 12.0938 4.35828 12.7881 4.47253 13.4561C4.55164 14.0889 5.1405 14.5986 5.77332 14.5898C10.8973 14.5898 16.0302 14.5898 21.1542 14.5898C21.4706 14.5898 21.8046 14.6162 22.1034 14.4844C22.7098 14.2471 23.0614 13.5176 22.8593 12.9023C22.7098 12.3574 22.1649 11.9531 21.5936 11.9619C16.4696 11.9619 11.3368 11.9619 6.21277 11.9619C5.98425 11.9531 5.75574 11.9443 5.52722 11.9795ZM5.52722 17.2529C4.76257 17.3848 4.24402 18.2637 4.53406 18.9844C4.70984 19.5029 5.22839 19.8633 5.77332 19.8633C11.0204 19.8633 16.2675 19.8633 21.5057 19.8633C21.9628 19.8809 22.4286 19.6611 22.6835 19.2832C22.9735 18.8701 22.9823 18.2988 22.7186 17.8682C22.4725 17.4463 21.9891 17.209 21.5057 17.2266C16.4344 17.2266 11.3632 17.2266 6.30066 17.2266C6.04578 17.2266 5.7821 17.209 5.52722 17.2529ZM5.52722 22.5264C4.85925 22.6406 4.35828 23.335 4.47253 24.0117C4.55164 24.6445 5.1405 25.1455 5.77332 25.1367C11.0204 25.1367 16.2587 25.1367 21.5057 25.1367C22.0331 25.1631 22.5604 24.8643 22.7802 24.3809C23.035 23.8711 22.8944 23.2119 22.4725 22.8428C22.1913 22.5791 21.7958 22.4736 21.4178 22.5C16.3817 22.5 11.3368 22.5 6.30066 22.5C6.04578 22.5 5.7821 22.4824 5.52722 22.5264ZM16.0741 27.7998C15.4061 27.9141 14.9052 28.6084 15.0194 29.2764C15.0985 29.9092 15.6874 30.4189 16.329 30.4102C18.0516 30.4102 19.7831 30.4102 21.5057 30.4102C22.244 30.4629 22.9296 29.8301 22.9208 29.0918C22.9296 28.3975 22.3143 27.7647 21.6112 27.7734C19.9061 27.7734 18.2098 27.7734 16.5048 27.7734C16.3553 27.7734 16.2147 27.7734 16.0741 27.7998Z" fill="#F6F6F7"/>
<path d="M29.5039 7.99802C30.8223 7.99802 32.1494 7.99802 33.4678 7.99802C34.1621 7.98923 34.7861 8.61325 34.7773 9.30759C34.7861 20.7422 34.7773 32.1679 34.7773 43.6025C34.8213 44.2881 34.2764 44.9209 33.5996 45H9.60547C8.95508 44.9297 8.41016 44.3496 8.41895 43.6904C8.41016 42.372 8.41895 41.0537 8.41895 39.7265C14.0439 39.7265 19.6689 39.7265 25.2939 39.7265C25.8828 39.7353 26.4805 39.665 27.0254 39.4365C28.4932 38.8652 29.5303 37.3447 29.5127 35.7627C29.5127 26.5078 29.5039 17.2529 29.5039 7.99802Z" fill="#41E88D"/>
</g>
<defs>
<clipPath id="clip0_195_345">
<rect width="34.2861" height="45" fill="white" transform="translate(0.5)"/>
</clipPath>
</defs>
</svg>
