<svg width="50" height="42" viewBox="0 0 50 42" fill="none" xmlns="http://www.w3.org/2000/svg">
<path d="M23.854 0.080234C25.4782 -0.146394 27.1684 0.108562 28.6415 0.826217C30.6056 1.76106 32.1731 3.48909 32.9097 5.53818C33.8445 8.06886 33.4385 11.0622 31.8426 13.2435C30.4262 15.2737 28.0561 16.6052 25.582 16.7468C23.1175 16.9357 20.6057 15.9347 18.9248 14.1312C17.8295 12.9791 17.0741 11.506 16.7908 9.93854C16.3942 7.91778 16.7908 5.75537 17.8767 4.00845C19.1609 1.89326 21.4083 0.40129 23.854 0.080234Z" fill="white"/>
<path d="M9.46323 7.87058C10.8702 7.68173 12.3433 7.99334 13.5614 8.73932C14.7229 9.44753 15.6388 10.5429 16.1393 11.8177C16.6681 13.168 16.7059 14.6977 16.2432 16.067C15.6105 18.0027 13.9675 19.5702 12.0033 20.1274C10.5208 20.5523 8.87777 20.4012 7.49912 19.7119C6.14879 19.0414 5.06287 17.8705 4.4963 16.4824C3.94862 15.1699 3.87307 13.659 4.28856 12.2993C4.94956 9.96689 7.06475 8.15387 9.46323 7.87058Z" fill="#B756FE"/>
<path d="M39.0097 7.8611C40.3695 7.70058 41.7859 7.98386 42.9663 8.69207C44.1561 9.40028 45.1098 10.5145 45.6103 11.8082C46.1863 13.2718 46.1863 14.9527 45.5914 16.4069C45.0343 17.8327 43.9295 19.0225 42.5602 19.7024C41.5593 20.2123 40.4073 20.4201 39.293 20.3445C37.31 20.2123 35.4404 19.0414 34.4205 17.3417C33.0796 15.2454 33.2213 12.3464 34.7227 10.3729C35.7236 8.9848 37.31 8.0594 39.0097 7.8611Z" fill="#B756FE"/>
<path d="M20.0297 18.5315C20.6813 18.4749 21.3423 18.4937 21.9938 18.4937C24.4206 18.4937 26.838 18.4937 29.2648 18.4937C30.9456 18.4843 32.617 19.1075 33.8823 20.2218C35.0721 21.2605 35.9031 22.7052 36.158 24.2633C36.2997 25.0093 36.2619 25.7742 36.2714 26.539C36.2714 30.8827 36.2714 35.217 36.2714 39.5607C36.2902 40.0989 35.9692 40.6372 35.4687 40.8638C35.1288 41.0338 34.7322 40.996 34.3639 41.0054C27.9711 41.0054 21.5878 41.0054 15.195 41.0054C14.4207 41.0432 13.7219 40.3444 13.7691 39.5701C13.7691 34.8865 13.7691 30.1934 13.7691 25.5098C13.7691 23.9895 14.2696 22.4692 15.195 21.2605C16.347 19.7308 18.1411 18.7204 20.0297 18.5315Z" fill="white"/>
<path d="M3.1176 23.98C4.34516 22.8374 5.98821 22.1764 7.65959 22.1387C8.9627 22.1198 10.2658 22.1292 11.5689 22.1292C11.1534 23.3001 10.9646 24.5371 10.974 25.7836C10.974 29.9101 10.974 34.0272 10.974 38.1537C10.9835 39.1074 10.8985 40.08 11.2101 40.996C9.57649 40.996 7.95232 40.996 6.31871 40.996C5.62939 40.9865 4.94006 41.0243 4.25073 40.911C3.46698 40.7599 2.73988 40.3916 2.15443 39.844C1.35179 39.0885 0.898532 37.9932 0.851318 36.8789V28.9375C0.907975 27.0678 1.7295 25.2359 3.1176 23.98Z" fill="#B756FE"/>
<path d="M38.481 22.1293C39.633 22.1198 40.785 22.1293 41.9276 22.1293C42.6264 22.1293 43.3346 22.1859 44.005 22.3653C45.5253 22.7619 46.8945 23.7062 47.8294 24.9715C48.6792 26.1141 49.1513 27.5117 49.1891 28.9375V36.8789C49.1419 37.5116 49.0191 38.1537 48.717 38.7203C48.1315 39.8723 46.9795 40.7222 45.7047 40.9299C45.0437 41.0338 44.3827 40.996 43.7123 41.0055C42.0787 41.0055 40.4545 41.0055 38.8209 41.0055C38.9814 40.4861 39.0664 39.9384 39.057 39.3907C39.057 34.7921 39.057 30.1934 39.057 25.6042C39.0759 24.4144 38.8681 23.2435 38.481 22.1293Z" fill="#B756FE"/>
</svg>
