<svg width="46" height="45" viewBox="0 0 46 45" fill="none" xmlns="http://www.w3.org/2000/svg">
<g clip-path="url(#clip0_195_334)">
<path d="M14.7471 0H31.2002C32.0264 0.0703125 32.8262 0.439453 33.3799 1.05469C33.9512 1.66992 34.2676 2.50488 34.2588 3.34863C34.2588 5.98535 34.2588 8.62207 34.2588 11.2588C34.2588 11.7334 34.2588 12.2256 34.1094 12.6826C33.7315 13.9922 32.4658 14.9766 31.0947 15.0117C29.7061 15.0205 28.3174 15.0117 26.9287 15.0117C25.9619 16.1016 25.0127 17.2002 24.0459 18.29C23.5098 18.9316 22.4287 18.9141 21.919 18.2549C21.1016 17.1826 20.293 16.0928 19.4844 15.0117C17.9639 15.0029 16.4346 15.0205 14.9053 15.0029C13.543 14.9678 12.2774 13.9922 11.8906 12.6826C11.75 12.252 11.7412 11.7949 11.75 11.3467C11.75 8.64844 11.75 5.95898 11.75 3.26074C11.75 2.36426 12.1455 1.48535 12.8047 0.878906C13.3321 0.37793 14.0264 0.0878906 14.7471 0Z" fill="#F6F6F7"/>
<path d="M0.693359 4.05176C1.12402 2.82129 2.35449 1.90723 3.66406 1.88086C5.4834 1.87207 7.30273 1.88086 9.11328 1.87207C8.99902 2.35547 8.92871 2.84766 8.9375 3.33984C8.9375 6.17871 8.92871 9.02637 8.94629 11.8652C8.97266 13.9131 10.1416 15.8555 11.8643 16.9365C10.915 18.0264 9.96582 19.1162 9.00781 20.1973C8.48047 20.8125 7.43457 20.751 6.93359 20.127C6.10742 19.0547 5.29883 17.9561 4.47266 16.875C3.75195 16.9014 2.99609 16.8838 2.33691 16.5322C1.31738 16.04 0.623047 15.0029 0.5 13.8779V4.88672C0.543945 4.60547 0.59668 4.32422 0.693359 4.05176Z" fill="#FFC933"/>
<path d="M36.8779 1.87207C38.6709 1.87207 40.4551 1.87207 42.248 1.87207C43.2412 1.87207 44.208 2.36426 44.8057 3.15527C45.21 3.67383 45.4385 4.31543 45.4912 4.96582V13.8516C45.3682 15.126 44.4893 16.2861 43.2676 16.6904C42.6963 16.9014 42.0811 16.8662 41.4834 16.875C40.71 17.9297 39.9189 18.9668 39.1367 20.0215C38.7852 20.5225 38.0908 20.7598 37.5107 20.54C37.1328 20.4258 36.8955 20.0918 36.6494 19.8105C35.8057 18.8525 34.9619 17.8857 34.1182 16.9277C35.4893 16.0664 36.5176 14.6689 36.8779 13.0869C37.0801 12.2783 37.0361 11.4434 37.0361 10.626C37.0361 8.2002 37.0361 5.76563 37.0361 3.33984C37.0625 2.84766 37.001 2.35547 36.8779 1.87207Z" fill="#FFC933"/>
<path d="M22.5869 21.5771C23.7031 21.498 24.8369 21.7529 25.8037 22.3154C27.1397 23.0889 28.1328 24.4248 28.4756 25.9277C28.7305 27.0264 28.6426 28.1953 28.2295 29.2412C27.6494 30.7353 26.3926 31.957 24.8721 32.4932C23.9053 32.8359 22.8418 32.9062 21.8398 32.6953C20.3193 32.3789 18.9482 31.3945 18.1572 30.0586C17.5596 29.0566 17.2871 27.8701 17.3926 26.71C17.4981 25.3916 18.0869 24.126 19.0361 23.2031C19.9766 22.2539 21.2598 21.665 22.5869 21.5771Z" fill="#F6F6F7"/>
<path d="M7.64549 24.3897C8.73534 24.2842 9.86034 24.6797 10.6338 25.4531C11.4072 26.209 11.8203 27.3076 11.7412 28.3887C11.6797 29.3731 11.1963 30.3135 10.458 30.9551C9.6494 31.667 8.51561 31.9922 7.45213 31.8252C6.36229 31.6758 5.36034 30.999 4.79784 30.0586C4.23534 29.1445 4.1035 27.9756 4.44628 26.9561C4.87694 25.5674 6.1953 24.5127 7.64549 24.3897Z" fill="#F6F6F7"/>
<path d="M37.625 24.3984C38.6358 24.3017 39.6729 24.6181 40.4375 25.2861C41.2549 25.9804 41.7471 27.0527 41.7471 28.1338C41.7559 29.2588 41.2197 30.3662 40.3408 31.0605C39.5059 31.7373 38.3721 32.0185 37.3174 31.8164C36.2539 31.623 35.2871 30.9463 34.751 30.0058C34.2149 29.083 34.1006 27.9316 34.4522 26.9297C34.9004 25.5586 36.1924 24.5215 37.625 24.3984Z" fill="#F6F6F7"/>
<path d="M2.57422 34.7784C3.46191 34.1104 4.57812 33.7412 5.68555 33.75C7.24121 33.75 8.78809 33.75 10.3438 33.75C11.2754 33.75 12.207 34.0137 13.0068 34.4971C12.1191 35.1826 11.3633 36.044 10.8271 37.0371C10.124 38.3203 9.8252 39.7969 9.87793 41.2471C7.22363 41.2471 4.56934 41.2471 1.90625 41.2471C1.21191 41.2559 0.59668 40.6846 0.5 40.0078V38.628C0.587891 37.125 1.35254 35.6748 2.57422 34.7784Z" fill="#F6F6F7"/>
<path d="M32.9932 34.4971C33.793 34.0137 34.7246 33.75 35.6562 33.75C37.2119 33.75 38.7588 33.75 40.3057 33.75C41.668 33.7412 43.0303 34.2949 43.9883 35.2617C44.8848 36.1494 45.4209 37.3799 45.5 38.6279V39.9902C45.4297 40.4472 45.1572 40.8691 44.7441 41.0888C44.3926 41.2998 43.9619 41.2471 43.5664 41.2558C41.0879 41.2558 38.6094 41.2558 36.1309 41.2558C36.1396 40.5088 36.1045 39.7617 35.9287 39.0322C35.5244 37.2305 34.4609 35.6045 32.9932 34.4971Z" fill="#F6F6F7"/>
<path d="M16.25 35.877C17.1816 35.543 18.1748 35.6309 19.1416 35.6221C22.1299 35.6221 25.1182 35.6221 28.1064 35.6221C29.1875 35.6133 30.2686 35.9473 31.1475 36.5801C32.167 37.3008 32.9053 38.4082 33.1777 39.6299C33.3623 40.377 33.3008 41.1504 33.3096 41.915C33.3008 42.5039 33.3184 43.084 33.3008 43.6728C33.2832 44.3408 32.7207 44.9033 32.0703 44.9912H13.9473C13.2617 44.9033 12.6729 44.2881 12.6904 43.585C12.6904 42.5566 12.6816 41.5371 12.6992 40.5088C12.7783 38.4346 14.2637 36.501 16.25 35.877Z" fill="#F6F6F7"/>
</g>
<defs>
<clipPath id="clip0_195_334">
<rect width="45" height="45" fill="white" transform="translate(0.5)"/>
</clipPath>
</defs>
</svg>
