<svg width="48" height="45" viewBox="0 0 48 45" fill="none" xmlns="http://www.w3.org/2000/svg">
<g clip-path="url(#clip0_195_328)">
<path d="M11.9452 0.116053C13.1477 -0.0316264 14.3713 0.0105677 15.5844 1.91266e-05C21.8819 1.91266e-05 28.1688 1.91266e-05 34.4663 1.91266e-05C36.0485 0.0105677 37.6414 -0.063272 39.2131 0.200441C41.1118 0.4958 43 1.20255 44.4663 2.48947C45.8587 3.70255 46.7869 5.39032 47.2616 7.17302C47.6308 8.55487 47.7574 10 47.7574 11.4241C47.7574 16.2764 47.7574 21.1287 47.7574 25.9916C47.789 27.8481 47.7047 29.7258 47.1456 31.4979C46.576 33.3861 45.4367 35.1372 43.8122 36.2764C41.7764 37.7215 39.2447 38.2173 36.7869 38.249C34.0127 38.2595 31.2279 38.249 28.4536 38.249C27.4304 38.2701 26.4705 37.5 26.2701 36.4979C26.1751 36.0971 26.249 35.6857 26.2911 35.2743C26.6076 32.4051 26.0274 29.4409 24.6772 26.8882C23.0844 23.8397 20.3734 21.4135 17.1772 20.1477C13.654 18.7342 9.57174 18.7658 6.08018 20.2637C5.46836 20.5591 4.74051 20.6224 4.1076 20.3481C3.29537 20.0106 2.72575 19.1561 2.74684 18.2701C2.74684 15.8439 2.74684 13.4072 2.74684 10.981C2.77849 8.67091 3.20043 6.27639 4.46625 4.30382C5.50001 2.65825 7.13503 1.42407 8.95992 0.78061C9.91984 0.453606 10.9325 0.232087 11.9452 0.116053ZM13.4009 9.67302C12.8101 9.89453 12.3671 10.4642 12.3249 11.0971C12.2722 11.6561 12.5253 12.2258 12.9578 12.5739C15.2468 14.3988 17.5253 16.2342 19.8144 18.0591C20.943 18.9557 22.2827 19.5781 23.7068 19.8312C25.711 20.2004 27.8418 19.8312 29.6139 18.808C30.4051 18.365 31.0907 17.7532 31.7975 17.1941C33.5485 15.7806 35.3207 14.3882 37.0717 12.9747C37.3987 12.711 37.7679 12.4684 37.9789 12.0886C38.3376 11.4557 38.2426 10.6013 37.7257 10.0844C37.1667 9.48314 36.1435 9.39875 35.4895 9.91563C33.2215 11.73 30.9536 13.5443 28.6857 15.3587C28.0106 15.9177 27.1983 16.308 26.3439 16.4874C24.8355 16.8038 23.2004 16.4346 21.9874 15.4853C19.6772 13.6393 17.3776 11.8038 15.0675 9.95783C14.6034 9.56753 13.9494 9.46204 13.4009 9.67302Z" fill="#F6F6F7"/>
<path d="M10.3629 22.595C12.6308 22.3102 14.9937 22.7321 17.0084 23.8186C19.6772 25.2216 21.7236 27.7321 22.557 30.6329C23.2848 33.1329 23.1055 35.8756 22.0506 38.2595C21.0063 40.6857 19.0654 42.7005 16.692 43.8608C14.308 45.0317 11.5021 45.3165 8.92828 44.6414C6.33334 43.9768 3.99157 42.3524 2.47258 40.1266C0.858657 37.8059 0.183551 34.8735 0.616041 32.0886C0.974691 29.6203 2.18777 27.2996 4.00212 25.5908C5.74262 23.9557 8.00001 22.8903 10.3629 22.595ZM7.06119 29.1667C6.2595 29.1878 5.57385 29.9367 5.61604 30.7384C5.61604 31.5401 6.34389 32.2469 7.14558 32.2258C8.62237 32.2363 10.0886 32.2258 11.5654 32.2258C11.8924 32.2258 12.2405 32.1836 12.5253 32.0148C13.1477 31.6667 13.443 30.865 13.2004 30.1899C12.9895 29.5675 12.346 29.1351 11.692 29.1562C10.1519 29.1667 8.60127 29.1456 7.06119 29.1667ZM7.06119 35.2954C6.57596 35.3165 6.12237 35.5802 5.85866 35.9916C5.50001 36.519 5.53165 37.2574 5.92195 37.7532C6.22786 38.1646 6.73418 38.3756 7.24051 38.3545C10.0886 38.3545 12.9367 38.3545 15.7954 38.3545C16.2068 38.3545 16.6392 38.3861 17.019 38.1857C17.6941 37.8692 18.0422 37.0148 17.789 36.3186C17.5886 35.7068 16.9663 35.2743 16.3228 35.2848C13.2426 35.2954 10.1519 35.2848 7.06119 35.2954Z" fill="#2D55FB"/>
</g>
<defs>
<clipPath id="clip0_195_328">
<rect width="47.2574" height="45" fill="white" transform="translate(0.5)"/>
</clipPath>
</defs>
</svg>
