<svg width="49" height="45" viewBox="0 0 49 45" fill="none" xmlns="http://www.w3.org/2000/svg">
<g clip-path="url(#clip0_195_418)">
<path d="M24.1049 0.0561697C24.9289 -0.196639 25.8465 0.477518 25.8746 1.33894C25.8839 2.90261 25.8746 4.46628 25.8746 6.03932C25.8933 6.68538 25.397 7.30336 24.7603 7.42508C23.9551 7.62171 23.0937 6.95692 23.0749 6.13295C23.0656 4.56928 23.0749 3.00561 23.0656 1.44194C23.0468 0.805233 23.4963 0.215346 24.1049 0.0561697Z" fill="#DF2DB1"/>
<path d="M13.8146 3.33332C14.2922 3.20223 14.8352 3.35204 15.1817 3.70785C16.3989 4.92508 17.6161 6.14231 18.8334 7.35017C19.2173 7.69661 19.4139 8.23968 19.2922 8.7453C19.1798 9.28837 18.7116 9.71909 18.1686 9.81272C17.7285 9.88762 17.2603 9.74718 16.942 9.43819C15.706 8.20223 14.4794 6.96628 13.2435 5.73968C12.9158 5.4307 12.7285 4.97189 12.7847 4.52246C12.8408 3.96066 13.2622 3.4644 13.8146 3.33332Z" fill="#DF2DB1"/>
<path d="M34.4045 3.33333C35.0131 3.16479 35.7247 3.45506 36.0056 4.03558C36.2959 4.56929 36.1835 5.27153 35.7434 5.69288C34.4981 6.9382 33.2528 8.19288 31.9981 9.4382C31.4925 9.94382 30.6124 9.97191 30.088 9.48502C29.4981 8.98876 29.4607 7.99625 30.0225 7.45318C31.2678 6.20786 32.5131 4.96255 33.7584 3.70786C33.9363 3.52996 34.161 3.39888 34.4045 3.33333Z" fill="#DF2DB1"/>
<path d="M14.0768 14.5693C15.4625 13.4176 17.2416 12.7715 19.0393 12.7622C21.8202 12.7622 24.6011 12.7622 27.3727 12.7622C28.5431 12.7247 29.7228 13.015 30.706 13.6611C31.2678 14.0169 31.736 14.5037 32.2041 14.9719C33.7303 16.4981 35.2659 18.0337 36.7921 19.5599C37.1573 19.9157 37.5225 20.2996 37.7285 20.7772C38.3371 22.0506 37.9625 23.7079 36.8483 24.5787C35.6498 25.5805 33.7303 25.4682 32.6255 24.3914C31.2865 23.0712 29.9757 21.7322 28.6461 20.412C28.3652 20.1311 27.9719 19.9813 27.5787 19.9813C24.0487 19.9719 20.5187 19.9813 16.9888 19.9813C15.4625 21.264 13.9363 22.5468 12.4007 23.8296C11.8296 24.3165 11.2303 24.7659 10.7715 25.3652C9.46067 27.0131 9.14232 29.382 9.95693 31.3202C10.603 32.912 11.9794 34.176 13.6086 34.7097C13.7491 35.5618 14.0487 36.3858 14.5075 37.1161C13.7772 37.0693 12.9064 37.3034 12.3071 36.7509C11.1648 35.6367 10.0506 34.4944 8.9176 33.3708C6.76405 33.3614 4.61985 33.3708 2.46629 33.3708C2.0824 33.3708 1.67041 33.4082 1.30524 33.2303C0.865169 33.015 0.58427 32.5843 0.5 32.1161V16.8165C0.58427 16.1236 1.20225 15.5524 1.90449 15.5618C5.61236 15.5618 9.32023 15.5618 13.0281 15.5618C13.3652 15.2247 13.7022 14.8783 14.0768 14.5693Z" fill="#F6F6F7"/>
<path d="M39.6011 18.4738C42.0824 18.4738 44.5543 18.4738 47.0356 18.4738C47.7191 18.455 48.309 19.0075 48.4401 19.6723V35.0187C48.3464 35.7022 47.7378 36.2734 47.045 36.264C45.1723 36.2734 43.2996 36.264 41.427 36.264C41.2397 36.2734 41.0056 36.2172 40.8652 36.3764C37.7472 38.9981 34.6199 41.6105 31.5019 44.2322C30.7341 44.897 29.6479 45.1592 28.6648 44.9063C27.4569 44.6161 26.4925 43.5674 26.3146 42.3408C26.1461 41.3951 26.4832 40.412 27.1011 39.691C26.4832 40.1779 25.8933 40.7022 25.2847 41.1985C24.5824 41.8071 23.6086 42.0786 22.7004 41.9195C21.4738 41.7322 20.4345 40.749 20.1536 39.5505C19.882 38.4831 20.2285 37.3033 21.015 36.5449C20.3315 36.9944 19.4888 37.2284 18.6648 37.088C17.3914 36.9007 16.3053 35.8614 16.0618 34.588C15.8464 33.5393 16.2116 32.4063 16.9794 31.676C16.1742 32.2378 15.1255 32.4532 14.1798 32.1535C12.9157 31.7884 11.97 30.5711 11.9326 29.2603C11.8858 28.2771 12.3352 27.294 13.103 26.676C14.6573 25.3932 16.1742 24.073 17.7378 22.809C20.8465 22.7996 23.9551 22.7996 27.0637 22.809C28.0375 23.8015 29.03 24.7846 30.0131 25.7678C30.4251 26.1704 30.809 26.6011 31.2772 26.9382C32.3539 27.7434 33.7116 28.1554 35.0599 28.0992C36.3333 28.0618 37.5787 27.5936 38.5712 26.7977C39.7697 25.8427 40.5843 24.4007 40.7715 22.8745C40.9775 21.3202 40.5375 19.7191 39.6011 18.4738Z" fill="#F6F6F7"/>
</g>
<defs>
<clipPath id="clip0_195_418">
<rect width="47.9401" height="45" fill="white" transform="translate(0.5)"/>
</clipPath>
</defs>
</svg>
