<svg width="46" height="45" viewBox="0 0 46 45" fill="none" xmlns="http://www.w3.org/2000/svg">
<path d="M37.5547 0H45.5V13.2363C42.8545 13.2275 40.209 13.2451 37.5547 13.2275C37.5635 8.82422 37.5547 4.41211 37.5547 0Z" fill="#32CAFD"/>
<path d="M3.83105 6.84668C5.75586 5.01855 8.38379 3.97266 11.0381 3.97266C18.9922 3.97266 26.9551 3.97266 34.9092 3.97266C34.9092 5.73926 34.9092 7.49707 34.9092 9.26367C27.1924 9.26367 19.4756 9.26367 11.75 9.26367C11.3457 9.26367 10.9326 9.25488 10.5283 9.29004C9.3418 9.42187 8.19922 9.95801 7.35547 10.8105C6.35352 11.7949 5.78223 13.1924 5.79102 14.5898C5.79102 15.9873 6.37988 17.3672 7.39062 18.3428C8.35742 19.292 9.69336 19.8457 11.0469 19.8545C12.8223 19.8545 14.6064 19.8545 16.3818 19.8545C16.3818 21.6211 16.3818 23.3789 16.3818 25.1455C14.6328 25.1543 12.8838 25.1455 11.1348 25.1455C9.93066 25.1455 8.72656 24.9521 7.58398 24.5479C5.07031 23.6777 2.92578 21.8145 1.69531 19.4502C0.992188 18.123 0.614258 16.6377 0.5 15.1436V14.2646C0.570312 11.4785 1.79199 8.74512 3.83105 6.84668Z" fill="#F6F6F7"/>
<path d="M19.0273 15.8818C21.6729 15.8818 24.3184 15.8818 26.9639 15.8818C26.9639 20.2939 26.9639 24.7061 26.9639 29.1182C24.3184 29.1182 21.6729 29.1182 19.0273 29.1182C19.0273 24.7061 19.0273 20.2939 19.0273 15.8818Z" fill="#32CAFD"/>
<path d="M29.6182 19.8545C31.3672 19.8457 33.1162 19.8545 34.8564 19.8545C36.1133 19.8545 37.3701 20.0654 38.5479 20.4961C41.0703 21.4102 43.1973 23.3262 44.3838 25.7256C45.0518 27.0527 45.4121 28.5293 45.4912 30.0146V30.9023C45.3945 32.6689 44.8936 34.4092 43.9619 35.9209C42.4238 38.5137 39.6992 40.3857 36.7109 40.8691C35.6387 41.0713 34.54 41.0186 33.4502 41.0273C25.9971 41.0273 18.5352 41.0273 11.082 41.0273C11.082 39.2607 11.082 37.5029 11.082 35.7363C18.623 35.7363 26.1641 35.7363 33.7139 35.7363C34.6016 35.7275 35.5068 35.7979 36.377 35.5254C38.0732 35.0508 39.4619 33.6709 39.9717 31.9834C40.4287 30.5244 40.2002 28.8633 39.3652 27.5801C38.6006 26.376 37.335 25.5146 35.9287 25.2422C35.3223 25.1104 34.6895 25.1455 34.0742 25.1455C32.5889 25.1455 31.1035 25.1455 29.6182 25.1455C29.6182 23.3789 29.6182 21.6211 29.6182 19.8545Z" fill="#F6F6F7"/>
<path d="M0.5 31.7637C3.14551 31.7637 5.79102 31.7637 8.44531 31.7725C8.44531 36.1846 8.44531 40.5967 8.44531 45H0.5V31.7637Z" fill="#32CAFD"/>
</svg>
