<?xml version="1.0" standalone="yes"?>
<svg xmlns="http://www.w3.org/2000/svg" width="39" height="30">
<path style="fill:#010101; stroke:none;" d="M0 0L0 5L15 4L15 3L4 3L5 0L0 0z"/>
<path style="fill:#df2db1; stroke:none;" d="M4 3C10.4105 3.00071 29.3925 4.04161 33.3966 9.2284C36.5075 13.2582 35 21.1869 35 26C39.0243 23.391 40.1023 8.55542 36.9722 4.60339C34.7695 1.82221 29.0686 3.18818 26 2.94213C19.6062 2.42946 8.74314 -4.31623 4 3z"/>
<path style="fill:#cf31af; stroke:none;" d="M19 0L20 1L19 0z"/>
<path style="fill:#010101; stroke:none;" d="M20 0C23.4355 5.29914 29.821 1.40689 34.8519 3.60339C40.9144 6.25036 38.7379 22.3395 35 26L35 9L34 9L33 30L39 30L39 0L20 0z"/>
<path style="fill:#f7f7f7; stroke:none;" d="M1.6034 5.02778C-1.51551 7.49799 -1.51551 26.502 1.6034 28.9722C5.17098 31.7978 28.829 31.7978 32.3966 28.9722C35.363 26.6228 35.2396 11.4662 32.9722 8.60339C31.0886 6.22515 26.6361 7.04487 24 6.99537C17.8186 6.8793 7.43481 0.40921 1.6034 5.02778z"/>
<path style="fill:#efefef; stroke:none;" d="M15 4L16 5L15 4z"/>
<path style="fill:#010101; stroke:none;" d="M16 5L17 6L16 5M17 6L17 7L31 7L17 6M0 29L1 30L0 29z"/>
</svg>
