<svg width="62" height="62" viewBox="0 0 62 62" fill="none" xmlns="http://www.w3.org/2000/svg">
<circle cx="31" cy="31" r="31" fill="url(#paint0_linear_6_661)"/>
<path d="M31.4445 46.9203C28.7383 46.9203 26.3133 46.5619 24.1695 45.8452C22.0257 45.1284 20.3036 44.0676 19.0032 42.6628C17.738 41.258 17.0703 39.5665 17 37.5883H26.5945C26.7351 38.7064 27.2095 39.5665 28.0179 40.1686C28.8262 40.7419 29.8805 41.0286 31.1809 41.0286C32.5164 41.0286 33.5707 40.785 34.3439 40.2976C35.1171 39.7815 35.5037 39.0791 35.5037 38.1903C35.5037 37.4449 35.1874 36.8285 34.5548 36.3412C33.9573 35.8538 33.2017 35.4524 32.2879 35.137C31.4093 34.8217 30.1441 34.4633 28.4923 34.0619C26.1025 33.4598 24.1519 32.8578 22.6407 32.2557C21.1295 31.6537 19.8291 30.7649 18.7397 29.5894C17.6502 28.414 17.1054 26.8802 17.1054 24.988C17.1054 22.1783 18.3531 19.9851 20.8483 18.4083C23.3436 16.8028 26.5945 16 30.601 16C34.6778 16 37.9638 16.8028 40.4591 18.4083C42.9543 19.9851 44.2898 22.1927 44.4655 25.031H34.7129C34.6426 24.0562 34.2033 23.2964 33.395 22.7517C32.5867 22.1783 31.5499 21.8916 30.2847 21.8916C29.1952 21.8916 28.3166 22.1353 27.6488 22.6227C26.9811 23.0814 26.6472 23.7552 26.6472 24.6439C26.6472 25.6187 27.2095 26.3784 28.3342 26.9232C29.4588 27.4679 31.216 28.0556 33.6059 28.6863C35.9957 29.3457 37.9286 29.9765 39.4047 30.5785C40.9159 31.1806 42.2163 32.055 43.3058 33.2018C44.3953 34.3486 44.94 35.8251 44.94 37.6313C44.94 39.3515 44.3953 40.914 43.3058 42.3188C42.2514 43.7236 40.7051 44.8417 38.6667 45.6731C36.6283 46.5046 34.2209 46.9203 31.4445 46.9203Z" fill="white"/>
<defs>
<linearGradient id="paint0_linear_6_661" x1="10" y1="6" x2="55.5" y2="54.5" gradientUnits="userSpaceOnUse">
<stop stop-color="#F903FE"/>
<stop offset="1" stop-color="#5303FE"/>
</linearGradient>
</defs>
</svg>
