<svg width="480" height="209" viewBox="0 0 480 209" fill="none" xmlns="http://www.w3.org/2000/svg">
<rect x="406.5" y="98.9565" width="72" height="62.4571" rx="5" fill="#0E1330"/>
<rect x="406.5" y="65.2495" width="72" height="21.8104" rx="5" fill="#0E1330"/>
<rect x="406.5" y="33.5254" width="72" height="21.8104" rx="5" fill="#0E1330"/>
<rect opacity="0.6" x="406.5" y="0.809814" width="20" height="18.8363" rx="5" fill="#B756FE"/>
<rect opacity="0.6" x="433.5" y="0.809814" width="19" height="18.8363" rx="5" fill="#7214FF"/>
<rect opacity="0.6" x="459.5" y="0.809814" width="20" height="18.8363" rx="5" fill="#32CAFD"/>
<rect x="0.5" y="0.809814" width="158" height="86.2503" rx="5" fill="#0E1330"/>
<rect x="14.5" y="13.6978" width="15" height="14.8707" rx="4" fill="#282D45"/>
<rect x="14.5" y="59.3013" width="15" height="14.8707" rx="4" fill="#282D45"/>
<rect opacity="0.4" x="40.5" y="13.6978" width="105" height="14.8707" rx="4" fill="#2D55FB"/>
<rect opacity="0.4" x="40.5" y="36.4995" width="105" height="14.8707" rx="4" fill="#32CAFD"/>
<rect opacity="0.4" x="40.5" y="59.3013" width="105" height="14.8707" rx="4" fill="#B756FE"/>
<rect x="170.5" y="0.809814" width="96" height="86.2503" rx="5" fill="#0E1330"/>
<line x1="190.5" y1="19.6028" x2="244.5" y2="19.6028" stroke="#282D45" stroke-width="10" stroke-linecap="round"/>
<line x1="190.5" y1="42.4045" x2="244.5" y2="42.4045" stroke="#282D45" stroke-width="10" stroke-linecap="round"/>
<line x1="218" y1="68.6636" x2="243" y2="68.6636" stroke="#282D45" stroke-width="13" stroke-linecap="round"/>
<line x1="192" y1="68.6636" x2="198" y2="68.6636" stroke="#282D45" stroke-width="13" stroke-linecap="round"/>
<rect x="0.5" y="98.9565" width="266" height="62.4571" rx="5" fill="#0E1330"/>
<line x1="17.5" y1="115.767" x2="69.5" y2="115.767" stroke="#282D45" stroke-width="10" stroke-linecap="round"/>
<line x1="15" y1="133.138" x2="241" y2="133.138" stroke="#282D45" stroke-width="5" stroke-linecap="round"/>
<line x1="15" y1="146.025" x2="203" y2="146.025" stroke="#282D45" stroke-width="5" stroke-linecap="round"/>
<rect x="0.5" y="173.31" width="266" height="62.4571" rx="5" fill="#0E1330"/>
<line x1="17.5" y1="190.121" x2="69.5" y2="190.121" stroke="#282D45" stroke-width="10" stroke-linecap="round"/>
<line x1="15" y1="207.491" x2="241" y2="207.491" stroke="#282D45" stroke-width="5" stroke-linecap="round"/>
<rect x="278.5" y="173.31" width="200" height="62.4571" rx="5" fill="#0E1330"/>
<line x1="295.5" y1="190.121" x2="347.5" y2="190.121" stroke="#282D45" stroke-width="10" stroke-linecap="round"/>
<line x1="293" y1="207.491" x2="453" y2="207.491" stroke="#282D45" stroke-width="5" stroke-linecap="round"/>
<rect x="278.5" y="0.809814" width="116" height="160.604" rx="5" fill="#0E1330"/>
<line x1="298.5" y1="18.6116" x2="371.5" y2="18.6116" stroke="#282D45" stroke-width="10" stroke-linecap="round"/>
<line x1="317" y1="44.9045" x2="374" y2="44.9045" stroke="#282D45" stroke-width="5" stroke-linecap="round"/>
<line x1="296" y1="44.9045" x2="301" y2="44.9045" stroke="#282D45" stroke-width="5" stroke-linecap="round"/>
<line x1="317" y1="70.6807" x2="374" y2="70.6807" stroke="#282D45" stroke-width="5" stroke-linecap="round"/>
<line x1="296" y1="70.6807" x2="301" y2="70.6807" stroke="#282D45" stroke-width="5" stroke-linecap="round"/>
<line x1="317" y1="57.7925" x2="374" y2="57.7925" stroke="#282D45" stroke-width="5" stroke-linecap="round"/>
<line x1="296" y1="57.7925" x2="301" y2="57.7925" stroke="#282D45" stroke-width="5" stroke-linecap="round"/>
<line x1="317" y1="83.5686" x2="374" y2="83.5686" stroke="#282D45" stroke-width="5" stroke-linecap="round"/>
<line x1="296" y1="83.5686" x2="301" y2="83.5686" stroke="#282D45" stroke-width="5" stroke-linecap="round"/>
<line x1="361" y1="146.025" x2="374" y2="146.025" stroke="#282D45" stroke-width="5" stroke-linecap="round"/>
<line x1="296" y1="146.025" x2="346" y2="146.025" stroke="#282D45" stroke-width="5" stroke-linecap="round"/>
</svg>
